<svg width="64" height="64" viewBox="0 0 64 64" fill="none" xmlns="http://www.w3.org/2000/svg">
<circle cx="32" cy="32" r="32" fill="#F85C50"/>
<path d="M39.3008 38.2383H36.9805V42H34.2617V38.2383H26.4688V36.1523L34.2969 24.8203H36.9805V35.9531H39.3008V38.2383ZM34.2617 35.9531V31.6992C34.2617 31.3477 34.2656 30.9922 34.2734 30.6328C34.2891 30.2656 34.3047 29.9141 34.3203 29.5781C34.3359 29.2422 34.3516 28.9336 34.3672 28.6523C34.3828 28.3633 34.3945 28.125 34.4023 27.9375H34.3086C34.1602 28.25 33.9961 28.5703 33.8164 28.8984C33.6367 29.2188 33.4453 29.5312 33.2422 29.8359L29.0234 35.9531H34.2617Z" fill="white"/>
</svg>
