<svg width="64" height="64" viewBox="0 0 64 64" fill="none" xmlns="http://www.w3.org/2000/svg">
<circle cx="32" cy="32" r="32" fill="#F85C50"/>
<path d="M32.9023 31.2891C34.0039 31.2891 34.9727 31.4883 35.8086 31.8867C36.6523 32.2773 37.3086 32.8555 37.7773 33.6211C38.2461 34.3789 38.4805 35.3086 38.4805 36.4102C38.4805 37.6133 38.2266 38.6523 37.7188 39.5273C37.2109 40.3945 36.4648 41.0625 35.4805 41.5312C34.4961 42 33.2969 42.2344 31.8828 42.2344C30.9844 42.2344 30.1445 42.1562 29.3633 42C28.5898 41.8438 27.9219 41.6094 27.3594 41.2969V38.8125C27.9453 39.1406 28.6484 39.4102 29.4688 39.6211C30.2891 39.8242 31.0742 39.9258 31.8242 39.9258C32.6211 39.9258 33.3047 39.8086 33.875 39.5742C34.4453 39.3398 34.8828 38.9805 35.1875 38.4961C35.5 38.0117 35.6562 37.3984 35.6562 36.6562C35.6562 35.6719 35.3398 34.9141 34.707 34.3828C34.082 33.8438 33.1016 33.5742 31.7656 33.5742C31.2969 33.5742 30.7969 33.6172 30.2656 33.7031C29.7422 33.7812 29.3047 33.8672 28.9531 33.9609L27.7461 33.2461L28.3906 24.8672H37.2969V27.293H30.8164L30.4414 31.5586C30.7227 31.4961 31.0586 31.4375 31.4492 31.3828C31.8398 31.3203 32.3242 31.2891 32.9023 31.2891Z" fill="white"/>
</svg>
