<svg width="435" height="258" viewBox="0 0 435 258" fill="none" xmlns="http://www.w3.org/2000/svg">
<path d="M378.977 170.857C362.7 173.364 351.289 186.937 347.618 193.41C337.952 193.753 320.772 193.13 329.376 187.893C337.981 182.657 353.19 161.647 359.719 151.797C378.129 116.75 343.526 108.33 327.878 117.998C315.36 125.732 307.209 164.054 304.699 182.248L256.81 161.972C253.225 164.154 248.608 166.444 258.819 158.148C271.583 147.779 311.104 103.496 283.434 86.5221C261.297 72.943 244.859 84.9596 239.504 95.1552C227.337 118.317 225.658 136.664 228.136 146.909C213.123 140.921 184.587 128.587 190.54 127.161C197.98 125.378 215.366 109.306 229.089 83.1805C240.068 62.2797 235.437 40.9845 225.132 39.6367C171.598 44.0383 169.434 103.88 166.422 109.615C164.012 114.203 137.689 92.0828 124.829 80.4494C128.594 79.9882 139.95 74.5704 155.249 56.5893C174.373 34.113 168.427 10.0586 144.076 3.56425C125.21 -1.46711 105.741 36.8173 97.8921 58.9827L32.001 9.99865e-07L0.500967 -7.00566e-08L89.8589 74.276C57.7206 87.4769 52.0753 112.155 50.3695 116.95C48.6637 121.745 46.2044 148.097 78.1495 144.551C110.094 141.005 118.997 82.2644 119.808 90.0077C120.457 96.2023 146.468 114.581 159.393 122.996C114.407 166.848 129.584 196.772 136.767 207.863C143.95 218.953 167.437 203.647 174.196 187.684C179.603 174.914 183.997 148.387 185.519 136.719L223.115 156.468C218.95 160.784 208.434 175.749 199.685 201.073C190.936 226.397 202.407 236.65 209.236 238.612C216.793 241.768 234.341 242.205 244.084 218.704C253.827 195.203 249.457 175.454 246.055 168.517L306.082 193.544C277.843 227.493 287.531 246.404 295.905 251.615C300.535 256.215 313.648 262.724 329.06 251.957C344.472 241.19 338.293 214.258 333.277 202.138L349.034 203.097C348.527 212.316 352.88 232.923 374.342 241.595C401.169 252.435 425.359 234.245 433.186 213.153C439.448 196.278 426.591 183.4 419.38 179.07C409.53 169.343 388.341 169.541 378.977 170.857Z" fill="#BBC9DD"/>
</svg>
