<svg width="460" height="640" viewBox="0 0 460 640" fill="none" xmlns="http://www.w3.org/2000/svg">
<path d="M-83.25 367.413C-91.7355 402.186 -59.4727 462.429 -44.5303 487.033C-38.8782 489.835 -27.9125 511.035 31.2523 527.467C78.5842 540.613 139.481 494.658 164.013 470.037C136.378 460.636 86.8128 408.837 87.3575 407.674C87.7933 406.743 103.729 414.356 111.642 418.279C151.369 433.387 196.675 425.083 214.362 419.043C244.749 408.885 276.278 379.039 288.245 365.385C241.686 343.451 221.846 313.839 217.745 301.775C224.487 302.251 274.731 322.859 294.494 331.223C310.304 337.914 321.266 332.553 324.77 329.035C367.762 289.585 391.988 201.375 398.728 162.201C407.682 128.807 405.441 68.5577 403.201 42.6074C396.5 45.0179 358.506 43.8575 340.346 42.976C287.707 51.2749 286.853 67.7719 281.334 76.7774C275.324 86.585 273.681 91.1357 270.903 93.1022C264.079 86.8533 266.176 76.4281 235.231 71.1196C204.287 65.8111 187.741 86.27 166.59 98.7143C149.67 108.67 138.958 128.964 135.717 137.866C132.572 153.504 146.425 180.434 147.596 183.881C148.768 187.328 152.241 194.782 148.264 191.378C144.287 187.973 124.401 170.95 100.743 164.954C77.0856 158.959 36.1613 201.726 20.3236 232.568C4.48594 263.41 18.0405 308.823 20.3835 315.716C22.2579 321.231 19.7393 323.04 18.2457 323.255C9.7193 315.684 -9.94585 298.388 -20.3954 289.769C-33.4574 278.994 -44.0942 280.887 -51.8433 288.51C-64.3609 300.824 -80.8129 338.416 -83.25 367.413Z" fill="white" fill-opacity="0.05"/>
<path d="M316.494 110.909C312.517 107.504 307.009 99.0412 316.793 92.4268C329.023 84.1588 331.108 112.421 316.494 110.909Z" fill="#FF867F"/>
<path d="M341.529 134.784C351.346 130.479 344.639 143.013 340.059 149.819C333.213 161.957 73.5939 393.408 -21.9207 476.226L-21.9207 454.092C64.9301 377.079 240.453 223.216 341.529 134.784Z" fill="#FF867F"/>
<path d="M-0.498407 395.153C6.16126 389.856 -5.18445 381.365 -16.0676 365.939C-18.1124 363.04 -20.0649 360.678 -21.8872 358.762L-21.8872 383.337C-14.8857 389.252 -6.51539 393.218 -0.498407 395.153Z" fill="#FF867F"/>
<path d="M91.0994 482.12C101.015 484.743 100.034 478.906 98.3038 475.66C93.1141 465.922 65.4381 453.635 59.2411 451.996C53.044 450.357 50.8242 452.123 49.2311 458.499C47.638 464.874 78.7053 478.842 91.0994 482.12Z" fill="#FF867F"/>
<path d="M94.4232 281.704C107.652 296.287 106.581 281.521 104.392 272.315C101.477 264.66 93.1353 246.385 83.0886 234.526C73.042 222.667 71.4482 231.622 71.9071 237.581C73.9007 246.213 81.1949 267.121 94.4232 281.704Z" fill="#FF867F"/>
<path d="M217.905 163.783C226.209 179.364 230.327 168.986 231.348 161.849C231.892 160.686 231.208 152.035 224.113 126.735C217.018 101.435 212.559 116.708 211.215 127.506C209.986 133.107 209.602 148.203 217.905 163.783Z" fill="#FF867F"/>
<path d="M296.482 242.863C280.705 238.481 286.277 248.79 291.035 254.493C313.726 271.474 326.542 264.93 325.371 261.483C324.199 258.036 316.204 248.34 296.482 242.863Z" fill="#FF867F"/>
<path d="M204.736 382.248C218.704 385.733 213.461 377.497 209.093 372.944C194.86 358.722 169.527 353.329 169.064 360.265C168.602 367.201 187.275 377.891 204.736 382.248Z" fill="#FF867F"/>
</svg>
