<svg width="24" height="24" viewBox="0 0 24 24" fill="none" xmlns="http://www.w3.org/2000/svg">
<path d="M18.5226 0H14.7356H5.47456C4.31287 0 3.36719 0.944421 3.36719 2.10526V23.5789C3.36719 23.8118 3.55582 24 3.78824 24H14.7356H20.2093C20.4417 24 20.6303 23.8118 20.6303 23.5789V2.10526C20.6303 0.944421 19.6847 0 18.5226 0ZM4.20929 2.10526C4.20929 1.40884 4.77687 0.842105 5.47456 0.842105H14.3146V23.1579H4.20929V2.10526ZM19.7882 23.1579H15.1567V0.842105H18.5226C19.2202 0.842105 19.7882 1.40884 19.7882 2.10526V23.1579Z" fill="#4A586E"/>
<path d="M11.3663 8H6.31363C6.08121 8 5.89258 8.18821 5.89258 8.42105V13.8947C5.89258 14.1276 6.08121 14.3158 6.31363 14.3158H11.3663C11.5987 14.3158 11.7873 14.1276 11.7873 13.8947V8.42105C11.7873 8.18821 11.5987 8 11.3663 8ZM6.73468 8.84211H8.41889V10.1053H9.261V8.84211H10.9452V11.7895H6.73468V8.84211ZM6.73468 13.4737V12.6316H10.9452V13.4737H6.73468Z" fill="#4A586E"/>
<path d="M13.0511 16.8767V6.73648C13.0511 6.50394 12.8626 6.31543 12.63 6.31543C12.3975 6.31543 12.209 6.50394 12.209 6.73648V16.8767C12.209 17.1092 12.3975 17.2977 12.63 17.2977C12.8626 17.2977 13.0511 17.1092 13.0511 16.8767Z" fill="#4A586E"/>
<path d="M17.262 16.8767V6.73648C17.262 6.50394 17.0735 6.31543 16.841 6.31543C16.6084 6.31543 16.4199 6.50394 16.4199 6.73648V16.8767C16.4199 17.1092 16.6084 17.2977 16.841 17.2977C17.0735 17.2977 17.262 17.1092 17.262 16.8767Z" fill="#4A586E"/>
</svg>
