<svg width="24" height="24" viewBox="0 0 24 24" fill="none" xmlns="http://www.w3.org/2000/svg">
<g clip-path="url(#clip0_468_339)">
<path d="M18.3994 5.23633H6.18301C5.46083 5.23633 4.87305 5.82411 4.87305 6.54673V21.3805C4.87305 22.1031 5.46083 22.6909 6.18301 22.6909H6.6185V24H7.49123V22.6909H17.0912V24H17.964V22.6909H18.3994C19.1216 22.6909 19.7094 22.1031 19.7094 21.3805V6.54673C19.7094 5.82411 19.1216 5.23633 18.3994 5.23633ZM18.8367 21.3805C18.8367 21.6218 18.6408 21.8181 18.3994 21.8181H17.964H17.0912H7.49123H6.6185H6.18301C5.9417 21.8181 5.74577 21.6218 5.74577 21.3805V6.54673C5.74577 6.30542 5.9417 6.10906 6.18301 6.10906H18.3994C18.6408 6.10906 18.8367 6.30542 18.8367 6.54673V21.3805Z" fill="#4A586E"/>
<path d="M7.49187 10.9092H6.61914V11.7819H7.0555V20.0728C7.0555 20.3141 7.25056 20.5092 7.49187 20.5092H17.0919C17.3332 20.5092 17.5282 20.3141 17.5282 20.0728V11.7819H17.9738V10.9092H17.0919H7.49187ZM16.6555 19.6365H7.92823V11.7819H16.6555V19.6365Z" fill="#4A586E"/>
<path d="M7.70891 6.98145C6.86673 6.98145 6.18164 7.66654 6.18164 8.50872C6.18164 9.3509 6.86673 10.036 7.70891 10.036C8.5511 10.036 9.23619 9.3509 9.23619 8.50872C9.23619 7.66654 8.5511 6.98145 7.70891 6.98145ZM7.70891 9.16326C7.34804 9.16326 7.05437 8.86959 7.05437 8.50872C7.05437 8.14785 7.34804 7.85417 7.70891 7.85417C8.06979 7.85417 8.36346 8.14785 8.36346 8.50872C8.36346 8.86959 8.06979 9.16326 7.70891 9.16326Z" fill="#4A586E"/>
<path d="M10.7636 6.98145C9.92142 6.98145 9.23633 7.66654 9.23633 8.50872C9.23633 9.3509 9.92142 10.036 10.7636 10.036C11.6058 10.036 12.2909 9.3509 12.2909 8.50872C12.2909 7.66654 11.6058 6.98145 10.7636 6.98145ZM10.7636 9.16326C10.4027 9.16326 10.1091 8.86959 10.1091 8.50872C10.1091 8.14785 10.4027 7.85417 10.7636 7.85417C11.1245 7.85417 11.4181 8.14785 11.4181 8.50872C11.4181 8.86959 11.1245 9.16326 10.7636 9.16326Z" fill="#4A586E"/>
<path d="M13.8183 6.98145C12.9761 6.98145 12.291 7.66654 12.291 8.50872C12.291 9.3509 12.9761 10.036 13.8183 10.036C14.6605 10.036 15.3456 9.3509 15.3456 8.50872C15.3456 7.66654 14.6605 6.98145 13.8183 6.98145ZM13.8183 9.16326C13.4574 9.16326 13.1637 8.86959 13.1637 8.50872C13.1637 8.14785 13.4574 7.85417 13.8183 7.85417C14.1792 7.85417 14.4728 8.14785 14.4728 8.50872C14.4728 8.86959 14.1792 9.16326 13.8183 9.16326Z" fill="#4A586E"/>
<path d="M16.873 6.98145C16.0308 6.98145 15.3457 7.66654 15.3457 8.50872C15.3457 9.3509 16.0308 10.036 16.873 10.036C17.7152 10.036 18.4002 9.3509 18.4002 8.50872C18.4002 7.66654 17.7152 6.98145 16.873 6.98145ZM16.873 9.16326C16.5121 9.16326 16.2184 8.86959 16.2184 8.50872C16.2184 8.14785 16.5121 7.85417 16.873 7.85417C17.2338 7.85417 17.5275 8.14785 17.5275 8.50872C17.5275 8.86959 17.2338 9.16326 16.873 9.16326Z" fill="#4A586E"/>
<path d="M5.74545 3.49222C5.74545 4.21309 6.33411 4.8 7.05716 4.8H11.4156C12.1386 4.8 12.7273 4.21309 12.7273 3.49222V3.49091C13.6899 3.49091 14.4727 2.70807 14.4727 1.74545C14.4727 0.782836 13.6899 0 12.7273 0C12.6461 0 12.5741 0.0279273 12.5091 0.0667636C12.4441 0.0279273 12.3721 0 12.2909 0H6.18182C6.10065 0 6.02865 0.0279273 5.96364 0.0667636C5.89862 0.0279273 5.82662 0 5.74545 0C4.78284 0 4 0.782836 4 1.74545C4 2.70807 4.78284 3.49091 5.74545 3.49091V3.49222ZM13.6 1.74545C13.6 2.22633 13.2086 2.61818 12.7273 2.61818V0.872727C13.2086 0.872727 13.6 1.26458 13.6 1.74545ZM6.61818 0.872727H11.8545V3.49222C11.8545 3.73222 11.6577 3.92727 11.4156 3.92727H7.05716C6.81498 3.92727 6.61818 3.73222 6.61818 3.49222V0.872727ZM4.87273 1.74545C4.87273 1.26458 5.26458 0.872727 5.74545 0.872727V2.61818C5.26458 2.61818 4.87273 2.22633 4.87273 1.74545Z" fill="#4A586E"/>
</g>
<defs>
<clipPath id="clip0_468_339">
<rect width="24" height="24" fill="white"/>
</clipPath>
</defs>
</svg>
