<svg width="24" height="24" viewBox="0 0 24 24" fill="none" xmlns="http://www.w3.org/2000/svg">
<path d="M23.5636 5.89064H22.6909V5.01704C22.6909 4.0553 21.9081 3.27246 20.9455 3.27246C19.9828 3.27246 19.2 4.0553 19.2 5.01704V5.89064H18.3273V5.01704C18.3273 4.0553 17.5444 3.27246 16.5818 3.27246C15.6192 3.27246 14.8364 4.0553 14.8364 5.01704V5.89064H13.9636V5.01704C13.9636 4.0553 13.1808 3.27246 12.2182 3.27246C11.2556 3.27246 10.4727 4.0553 10.4727 5.01704V5.89064H9.6V5.01704C9.6 4.0553 8.81716 3.27246 7.85455 3.27246C6.89193 3.27246 6.10909 4.0553 6.10909 5.01704V5.89064H5.23636V5.01704C5.23636 4.0553 4.45353 3.27246 3.49091 3.27246C2.52829 3.27246 1.74545 4.0553 1.74545 5.01704V5.89064H0.872727V5.45428H0V6.32701V8.94519V9.81792H0.872727V9.38155H1.74545V18.9824C1.74545 19.9442 2.52829 20.727 3.49091 20.727C4.45353 20.727 5.23636 19.9442 5.23636 18.9824V18.5452H6.10909V18.9824C6.10909 19.9442 6.89193 20.727 7.85455 20.727C8.81716 20.727 9.6 19.9442 9.6 18.9824V18.5452H10.4727V18.9824C10.4727 19.9442 11.2556 20.727 12.2182 20.727C13.1808 20.727 13.9636 19.9442 13.9636 18.9824V18.5452H14.8364V18.9824C14.8364 19.9442 15.6192 20.727 16.5818 20.727C17.5444 20.727 18.3273 19.9442 18.3273 18.9824V18.5452H19.2V18.9824C19.2 19.9442 19.9828 20.727 20.9455 20.727C21.9081 20.727 22.6909 19.9442 22.6909 18.9824V9.38155H23.5636C23.8049 9.38155 24 9.1865 24 8.94519V6.32701C24 6.0857 23.8049 5.89064 23.5636 5.89064ZM19.2 6.76337V8.50882H18.3273V6.76337H19.2ZM14.8364 6.76337V8.50882H13.9636V6.76337H14.8364ZM10.4727 6.76337V8.50882H9.6V6.76337H10.4727ZM6.10909 6.76337V8.50882H5.23636V6.76337H6.10909ZM0.872727 8.50882V6.76337H1.74545V8.50882H0.872727ZM4.36364 18.9824C4.36364 19.4633 3.97178 19.8543 3.49091 19.8543C3.01004 19.8543 2.61818 19.4633 2.61818 18.9824V8.94519V6.32701V5.01704C2.61818 4.53617 3.01004 4.14519 3.49091 4.14519C3.97178 4.14519 4.36364 4.53617 4.36364 5.01704V6.32701V8.94519V17.6725V18.5452V18.9824ZM5.23636 17.6725V9.38155H6.10909V17.6725H5.23636ZM8.72727 18.9824C8.72727 19.4633 8.33585 19.8543 7.85455 19.8543C7.37324 19.8543 6.98182 19.4633 6.98182 18.9824V8.94519V6.32701V5.01704C6.98182 4.53617 7.37324 4.14519 7.85455 4.14519C8.33585 4.14519 8.72727 4.53617 8.72727 5.01704V6.32701V8.94519V18.9824ZM9.6 17.6725V9.38155H10.4727V17.6725H9.6ZM13.0909 18.9824C13.0909 19.4633 12.6995 19.8543 12.2182 19.8543C11.7369 19.8543 11.3455 19.4633 11.3455 18.9824V18.5452V17.6725V8.94519V6.32701V5.01704C11.3455 4.53617 11.7369 4.14519 12.2182 4.14519C12.6995 4.14519 13.0909 4.53617 13.0909 5.01704V6.32701V8.94519V17.6725V18.5452V18.9824ZM13.9636 17.6725V9.38155H14.8364V17.6725H13.9636ZM17.4545 18.9824C17.4545 19.4633 17.0631 19.8543 16.5818 19.8543C16.1005 19.8543 15.7091 19.4633 15.7091 18.9824V8.94519V6.32701V5.01704C15.7091 4.53617 16.1005 4.14519 16.5818 4.14519C17.0631 4.14519 17.4545 4.53617 17.4545 5.01704V6.32701V8.94519V17.6725V18.5452V18.9824ZM18.3273 17.6725V9.38155H19.2V17.6725H18.3273ZM21.8182 18.9824C21.8182 19.4633 21.4268 19.8543 20.9455 19.8543C20.4641 19.8543 20.0727 19.4633 20.0727 18.9824V8.94519V6.32701V5.01704C20.0727 4.53617 20.4641 4.14519 20.9455 4.14519C21.4268 4.14519 21.8182 4.53617 21.8182 5.01704V6.32701V8.94519V18.9824ZM23.1273 8.50882H22.6909V6.76337H23.1273V8.50882Z" fill="#4A586E"/>
</svg>
