<svg width="32" height="32" viewBox="0 0 32 32" fill="none" xmlns="http://www.w3.org/2000/svg">
<path d="M15.4551 8.05664C13.6519 8.05727 11.8894 8.59251 10.3904 9.59469C8.89134 10.5969 7.7231 12.021 7.03334 13.6871C6.34358 15.3531 6.16327 17.1862 6.51521 18.9547C6.86715 20.7233 7.73553 22.3477 9.01057 23.6228C10.2856 24.8978 11.9101 25.7662 13.6786 26.1181C15.4471 26.47 17.2802 26.2897 18.9463 25.6C20.6123 24.9102 22.0364 23.742 23.0386 22.243C24.0408 20.7439 24.5761 18.9814 24.5767 17.1782C24.5742 14.7598 23.6123 12.4412 21.9022 10.7311C20.1922 9.02099 17.8735 8.05916 15.4551 8.05664V8.05664ZM15.4551 25.3461C13.8398 25.3455 12.2609 24.8659 10.9181 23.9681C9.57531 23.0702 8.5289 21.7943 7.91118 20.3018C7.29345 18.8092 7.13215 17.167 7.44767 15.5828C7.76319 13.9986 8.54136 12.5435 9.68379 11.4015C10.8262 10.2595 12.2816 9.48192 13.8659 9.16702C15.4503 8.85211 17.0924 9.01405 18.5847 9.63235C20.077 10.2507 21.3525 11.2976 22.2499 12.6407C23.1472 13.9838 23.6262 15.5629 23.6262 17.1782C23.6237 19.3443 22.7619 21.4208 21.23 22.9522C19.698 24.4835 17.6211 25.3445 15.4551 25.3461Z" fill="#606060"/>
<path d="M29.9413 8.87109C29.8152 8.87109 29.6944 8.92116 29.6052 9.01029C29.5161 9.09942 29.466 9.2203 29.466 9.34634V12.9899H28.5155V9.34634C28.5155 9.2203 28.4655 9.09942 28.3764 9.01029C28.2872 8.92116 28.1663 8.87109 28.0403 8.87109C27.9143 8.87109 27.7934 8.92116 27.7042 9.01029C27.6151 9.09942 27.5651 9.2203 27.5651 9.34634V12.9899H26.6146V9.34634C26.6146 9.2203 26.5645 9.09942 26.4754 9.01029C26.3862 8.92116 26.2654 8.87109 26.1393 8.87109C26.0133 8.87109 25.8924 8.92116 25.8033 9.01029C25.7141 9.09942 25.6641 9.2203 25.6641 9.34634V13.4652C25.6641 13.5912 25.7141 13.7121 25.8033 13.8012C25.8924 13.8903 26.0133 13.9404 26.1393 13.9404H27.5651V24.8711C27.5651 24.9971 27.6151 25.118 27.7042 25.2071C27.7934 25.2963 27.9143 25.3463 28.0403 25.3463C28.1663 25.3463 28.2872 25.2963 28.3764 25.2071C28.4655 25.118 28.5155 24.9971 28.5155 24.8711V13.9404H29.9413C30.0673 13.9404 30.1882 13.8903 30.2773 13.8012C30.3665 13.7121 30.4165 13.5912 30.4165 13.4652V9.34634C30.4165 9.2203 30.3665 9.09942 30.2773 9.01029C30.1882 8.92116 30.0673 8.87109 29.9413 8.87109V8.87109Z" fill="#606060"/>
<path d="M4.15399 8.87129C4.06968 8.83369 3.97625 8.82145 3.8851 8.83608C3.79395 8.85071 3.70904 8.89157 3.64073 8.95367C3.52667 9.05505 0.881123 11.5358 0.881123 17.8852C0.878998 17.9489 0.889719 18.0124 0.912649 18.0719C0.935579 18.1314 0.970249 18.1857 1.01459 18.2315C1.05894 18.2773 1.11205 18.3137 1.17077 18.3386C1.22948 18.3635 1.29261 18.3763 1.35637 18.3762H3.48548V24.8713C3.48548 24.9973 3.53555 25.1182 3.62468 25.2073C3.7138 25.2965 3.83468 25.3465 3.96073 25.3465C4.08677 25.3465 4.20765 25.2965 4.29678 25.2073C4.3859 25.1182 4.43597 24.9973 4.43597 24.8713V9.32119C4.43908 9.22665 4.41391 9.13334 4.36367 9.05319C4.31344 8.97304 4.24043 8.90971 4.15399 8.87129V8.87129ZM3.48548 17.4257H1.83796C1.90132 14.0388 2.80112 11.9002 3.48548 10.7469V17.4257Z" fill="#606060"/>
<path d="M20.9115 17.4697C20.7872 17.4506 20.6603 17.4815 20.5588 17.5557C20.4572 17.63 20.3892 17.7415 20.3697 17.8657C20.1929 19.0075 19.6153 20.0491 18.7404 20.8038C17.8655 21.5585 16.7505 21.9771 15.5951 21.9845H15.5254C14.2309 21.9908 12.987 21.4827 12.0672 20.5718C11.1474 19.6609 10.6271 18.422 10.6208 17.1275C10.6145 15.833 11.1227 14.5891 12.0336 13.6693C12.9445 12.7495 14.1834 12.2293 15.4779 12.223C15.6039 12.223 15.7248 12.1729 15.8139 12.0838C15.903 11.9946 15.9531 11.8738 15.9531 11.7477C15.9531 11.6217 15.903 11.5008 15.8139 11.4117C15.7248 11.3225 15.6039 11.2725 15.4779 11.2725V11.2725C13.9317 11.2788 12.4514 11.899 11.3626 12.9967C10.2738 14.0945 9.66562 15.5798 9.67192 17.1259C9.67823 18.6721 10.2985 20.1524 11.3962 21.2412C12.4939 22.33 13.9793 22.9382 15.5254 22.9319H15.5824C16.962 22.9227 18.2933 22.4229 19.3382 21.522C20.3831 20.6211 21.0733 19.3779 21.2854 18.0146C21.306 17.893 21.2784 17.7682 21.2087 17.6665C21.1389 17.5649 21.0324 17.4943 20.9115 17.4697V17.4697Z" fill="#606060"/>
<path d="M18.1457 12.9647C18.8823 13.4409 19.4776 14.1062 19.8693 14.8911C19.9256 15.0041 20.0244 15.0901 20.1442 15.1302C20.2639 15.1703 20.3947 15.1612 20.5077 15.1049C20.6207 15.0486 20.7067 14.9497 20.7468 14.83C20.7869 14.7103 20.7778 14.5795 20.7215 14.4665C20.255 13.5283 19.5448 12.7328 18.6653 12.1631C18.5594 12.0947 18.4307 12.071 18.3074 12.0975C18.1841 12.1239 18.0764 12.1983 18.0079 12.3041C17.9394 12.41 17.9158 12.5388 17.9422 12.6621C17.9687 12.7853 18.043 12.8931 18.1489 12.9616L18.1457 12.9647Z" fill="#606060"/>
</svg>
