<svg width="24" height="24" viewBox="0 0 24 24" fill="none" xmlns="http://www.w3.org/2000/svg">
<g clip-path="url(#clip0_284_712)">
<path d="M21.079 9.65858H21.0732V6.43907C21.0732 4.018 19.1017 2.04883 16.6782 2.04883H7.32176C4.89834 2.04883 2.92683 4.018 2.92683 6.43907V9.65858H2.92098C1.31063 9.65858 0 10.9739 0 12.5913V16.0976V16.683V19.0244V21.9513H1.17073V19.6098H22.8293V21.9513H24V19.0244V16.683V16.0976V12.5913C24 10.9739 22.6894 9.65858 21.079 9.65858ZM4.09756 6.43907C4.09756 4.66424 5.544 3.21956 7.32176 3.21956H16.6777C18.456 3.21956 19.9024 4.66424 19.9024 6.43907V9.65858H16.9756V6.14639C16.9756 5.90697 16.8299 5.69215 16.608 5.60258C16.4839 5.55341 13.5582 4.39029 12 4.39029C10.4418 4.39029 7.5161 5.55341 7.392 5.60258C7.17015 5.69215 7.02439 5.90697 7.02439 6.14639V9.65858H4.09756V6.43907ZM15.8049 6.54854V9.65858H8.19512V6.54795C9.17502 6.18151 11.0336 5.56102 12 5.56102C12.9653 5.56102 14.8244 6.18151 15.8049 6.54854ZM22.8293 18.4391H1.17073V16.683H22.8293V18.4391ZM22.8293 15.5122H1.17073V12.5913C1.17073 11.6201 1.95571 10.8293 2.92098 10.8293H3.5122H7.60976H16.3902H20.4878H21.079C22.0443 10.8293 22.8293 11.6201 22.8293 12.5913V15.5122Z" fill="#4A586E"/>
</g>
<defs>
<clipPath id="clip0_284_712">
<rect width="24" height="24" fill="white"/>
</clipPath>
</defs>
</svg>
