<svg width="32" height="33" viewBox="0 0 32 33" fill="none" xmlns="http://www.w3.org/2000/svg">
<path fill-rule="evenodd" clip-rule="evenodd" d="M21.8926 28.4307C22.7396 28.4307 23.2115 27.8265 23.2115 26.8961V23.7545H23.7922C27.3978 23.7545 29.3337 21.7729 29.3337 18.2204V9.96474C29.3337 6.4123 27.3978 4.43066 23.7922 4.43066H8.20843C4.60287 4.43066 2.66699 6.42438 2.66699 9.96474V18.2204C2.66699 21.7608 4.60287 23.7545 8.20843 23.7545H15.9761L20.1504 27.464C20.8884 28.1165 21.2998 28.4307 21.8926 28.4307ZM21.3968 26.2194L17.5251 22.3769C17.0653 21.9057 16.7265 21.809 16.049 21.809H8.2087C5.77676 21.809 4.61523 20.5645 4.61523 18.2083V9.96467C4.61523 7.60846 5.77676 6.37598 8.2087 6.37598H23.7925C26.2365 6.37598 27.386 7.60846 27.386 9.96467V18.2083C27.386 20.5645 26.2365 21.809 23.7925 21.809H22.3043C21.6509 21.809 21.3968 22.0628 21.3968 22.7153V26.2194Z" fill="black"/>
</svg>
