<svg width="32" height="33" viewBox="0 0 32 33" fill="none" xmlns="http://www.w3.org/2000/svg">
<path fill-rule="evenodd" clip-rule="evenodd" d="M21.8936 28.4307C22.7406 28.4307 23.2124 27.8265 23.2124 26.8961V23.7545H23.7932C27.3988 23.7545 29.3346 21.7729 29.3346 18.2204V9.96474C29.3346 6.4123 27.3988 4.43066 23.7932 4.43066H8.20941C4.60384 4.43066 2.66797 6.42438 2.66797 9.96474V18.2204C2.66797 21.7608 4.60384 23.7545 8.20941 23.7545H15.9771L20.1513 27.464C20.8894 28.1165 21.3008 28.4307 21.8936 28.4307ZM21.3988 26.2194L17.527 22.3769C17.0673 21.9057 16.7285 21.809 16.0509 21.809H8.21065C5.77871 21.809 4.61719 20.5645 4.61719 18.2083V9.96467C4.61719 7.60846 5.77871 6.37598 8.21065 6.37598H23.7944C26.2385 6.37598 27.3879 7.60846 27.3879 9.96467V18.2083C27.3879 20.5645 26.2385 21.809 23.7944 21.809H22.3062C21.6529 21.809 21.3988 22.0628 21.3988 22.7153V26.2194Z" fill="#606060"/>
</svg>
