<svg width="24" height="24" viewBox="0 0 24 24" fill="none" xmlns="http://www.w3.org/2000/svg">
<path d="M8.69388 23.5918C8.59184 23.5918 8.53061 23.5714 8.44898 23.5306C8.08163 23.2857 6.34694 22 7.79592 19.449C8.18367 18.7551 8.28572 18.2041 8.14286 17.7551C7.97959 17.2449 7.44898 17.0408 7.44898 17.0408C7.20408 16.9388 7.08163 16.6531 7.18367 16.4082C7.26531 16.2041 7.42857 16.0816 7.63265 16.0816C7.69388 16.0816 7.7551 16.102 7.81633 16.1224C7.89796 16.1224 8.7551 16.4898 9.10204 17.4082C9.36735 18.1429 9.22449 19 8.67347 19.9592C7.65306 21.7551 8.73469 22.551 8.95918 22.6939C9.18367 22.8163 9.26531 23.1224 9.14286 23.3673C9.02041 23.5306 8.83674 23.5918 8.69388 23.5918ZM12 22.5102C11.898 22.5102 11.8367 22.4898 11.7551 22.449C11.0204 22.0204 9.97959 20.6939 11.1429 18.6122C11.4898 17.9796 11.5918 17.4694 11.449 17.0816C11.3061 16.6327 10.8367 16.449 10.8367 16.449C10.5714 16.3469 10.449 16.0816 10.551 15.8163C10.6327 15.6122 10.7959 15.4898 11 15.4898C11.0612 15.4898 11.1224 15.5102 11.1837 15.5306C11.3878 15.6122 12.102 15.9388 12.3878 16.7551C12.6327 17.449 12.5102 18.2449 12 19.1224C11.0204 20.8776 12.2041 21.5918 12.2653 21.6122C12.3673 21.6735 12.449 21.7755 12.4898 21.898C12.5306 22.0204 12.5102 22.1633 12.449 22.2857C12.3265 22.449 12.1429 22.5102 12 22.5102ZM5.22449 22.5102C5.12245 22.5102 5.06122 22.4898 4.97959 22.449C4.2449 22.0204 3.20408 20.6939 4.36735 18.6122C4.71429 17.9796 4.81633 17.4694 4.67347 17.0816C4.53061 16.6327 4.06122 16.449 4.06122 16.449C3.79592 16.3469 3.67347 16.0816 3.77551 15.8163C3.85714 15.6122 4.02041 15.4898 4.22449 15.4898C4.28571 15.4898 4.34694 15.5102 4.40816 15.5306C4.61224 15.6122 5.32653 15.9592 5.61225 16.7551C5.85714 17.449 5.71429 18.2449 5.22449 19.1429C4.2449 20.898 5.42857 21.6122 5.4898 21.6327C5.59184 21.6939 5.67347 21.7959 5.71429 21.9184C5.7551 22.0408 5.73469 22.1837 5.67347 22.3061C5.57143 22.449 5.36735 22.5102 5.22449 22.5102ZM17.6531 20.6939C17.4898 20.6939 17.3673 20.6327 17.2653 20.5306C17.1633 20.4286 17.102 20.2857 17.102 20.1429C17.102 19.9184 17.2449 19.7143 17.449 19.6122H17.4694V18.5102L16.4286 19.102V19.1224C16.4286 19.2857 16.3673 19.4898 16.1633 19.5918C16.0816 19.6531 15.9796 19.6735 15.8776 19.6735C15.6735 19.6735 15.4898 19.5714 15.4082 19.4082C15.3265 19.2653 15.3061 19.1224 15.3469 18.9796C15.3878 18.8367 15.4694 18.7143 15.6122 18.6531C15.6939 18.5918 15.7959 18.5714 15.8776 18.5714C15.9796 18.5714 16.0816 18.5918 16.1633 18.6531L17.102 18.1224L16.1837 17.5918C16.0612 17.6327 15.9592 17.6531 15.8776 17.6531C15.7755 17.6531 15.6939 17.6327 15.6122 17.5918C15.3673 17.4286 15.2653 17.0816 15.4082 16.8367C15.5102 16.6735 15.6939 16.5714 15.898 16.5714C16 16.5714 16.102 16.5918 16.1837 16.6531C16.3469 16.7551 16.449 16.9184 16.449 17.1224V17.1429L17.4898 17.7347V16.6327H17.4694C17.2653 16.5306 17.1224 16.3265 17.1224 16.102C17.1224 15.7959 17.3673 15.551 17.6735 15.551C17.8367 15.551 17.9796 15.6122 18.0816 15.7143C18.1837 15.8163 18.2449 15.9592 18.2449 16.102C18.2449 16.2857 18.1429 16.4694 17.9592 16.5714H17.898V17.6327L18.7959 17.1224V17.102C18.7959 16.9388 18.8571 16.7347 19.0612 16.6327C19.1429 16.5714 19.2449 16.551 19.3469 16.551C19.551 16.551 19.7347 16.6531 19.8163 16.8163C19.898 16.9592 19.9184 17.102 19.8776 17.2449C19.8367 17.3878 19.7551 17.5102 19.6122 17.5714C19.5306 17.6327 19.4286 17.6531 19.3469 17.6531C19.2449 17.6531 19.1429 17.6327 19.0612 17.5714L18.1224 18.102L19.0408 18.6327C19.1633 18.5918 19.2653 18.5714 19.3469 18.5714C19.449 18.5714 19.5306 18.5918 19.6122 18.6327C19.8571 18.7959 19.9592 19.1429 19.8163 19.3878C19.7143 19.551 19.5306 19.6531 19.3265 19.6531C19.2245 19.6531 19.1224 19.6327 19.0408 19.5714C18.8776 19.4694 18.7755 19.3061 18.7755 19.102V19.0816L17.898 18.5918V19.6531H17.9184C18.102 19.7347 18.2041 19.9184 18.2041 20.1224C18.2041 20.449 17.9592 20.6939 17.6531 20.6939ZM2.79592 14.2449C1.2449 14.2449 0 13 0 11.449V4.79592C0 3.2449 1.2449 2 2.79592 2H21.2041C22.7551 2 24 3.2449 24 4.79592V11.449C24 13 22.7551 14.2449 21.2041 14.2449H2.79592ZM2.5102 3.22449C1.77551 3.22449 1.18367 3.83674 1.18367 4.61225V11.7143C1.18367 12.4694 1.77551 13.102 2.5102 13.102H21.4694C22.2041 13.102 22.7959 12.4898 22.7959 11.7143V4.61225C22.7959 3.85714 22.2041 3.22449 21.4694 3.22449H2.5102ZM3.06122 11.1837C2.79592 11.1837 2.57143 10.9592 2.57143 10.6939C2.57143 10.4286 2.79592 10.2041 3.06122 10.2041H20.4694C20.7347 10.2041 20.9592 10.4286 20.9592 10.6939C20.9592 10.9592 20.7347 11.1837 20.4694 11.1837H3.06122ZM3.06122 9.12245C2.79592 9.12245 2.57143 8.89796 2.57143 8.63265C2.57143 8.36735 2.79592 8.14286 3.06122 8.14286H20.4694C20.7347 8.14286 20.9592 8.36735 20.9592 8.63265C20.9592 8.89796 20.7347 9.12245 20.4694 9.12245H3.06122Z" fill="#4A586E"/>
</svg>
