<svg width="64" height="64" viewBox="0 0 64 64" fill="none" xmlns="http://www.w3.org/2000/svg">
<circle cx="32" cy="32" r="32" fill="#F85C50"/>
<path d="M38.6797 42H27.0781V39.9258L31.5195 35.4258C32.3789 34.5508 33.0859 33.7969 33.6406 33.1641C34.1953 32.5234 34.6055 31.918 34.8711 31.3477C35.1445 30.7773 35.2812 30.1562 35.2812 29.4844C35.2812 28.6562 35.043 28.0312 34.5664 27.6094C34.0898 27.1797 33.4609 26.9648 32.6797 26.9648C31.9375 26.9648 31.25 27.1133 30.6172 27.4102C29.9922 27.6992 29.3438 28.1133 28.6719 28.6523L27.1602 26.8359C27.6367 26.4297 28.1445 26.0586 28.6836 25.7227C29.2305 25.3867 29.8398 25.1211 30.5117 24.9258C31.1836 24.7227 31.9492 24.6211 32.8086 24.6211C33.8945 24.6211 34.832 24.8164 35.6211 25.207C36.4102 25.5898 37.0156 26.125 37.4375 26.8125C37.8672 27.5 38.082 28.3008 38.082 29.2148C38.082 30.1367 37.8984 30.9883 37.5312 31.7695C37.1641 32.5508 36.6406 33.3242 35.9609 34.0898C35.2812 34.8477 34.4727 35.6719 33.5352 36.5625L30.5703 39.457V39.5859H38.6797V42Z" fill="white"/>
</svg>
