<svg width="64" height="64" viewBox="0 0 64 64" fill="none" xmlns="http://www.w3.org/2000/svg">
<circle cx="32" cy="32" r="32" fill="#F85C50"/>
<path d="M38.0234 28.7812C38.0234 29.5547 37.8672 30.2266 37.5547 30.7969C37.2422 31.3672 36.8125 31.8359 36.2656 32.2031C35.7266 32.5625 35.1016 32.8203 34.3906 32.9766V33.0586C35.7578 33.2305 36.7891 33.6602 37.4844 34.3477C38.1875 35.0352 38.5391 35.9453 38.5391 37.0781C38.5391 38.0703 38.3008 38.957 37.8242 39.7383C37.3477 40.5117 36.6172 41.1211 35.6328 41.5664C34.6484 42.0117 33.3828 42.2344 31.8359 42.2344C30.9062 42.2344 30.043 42.1602 29.2461 42.0117C28.457 41.8633 27.707 41.625 26.9961 41.2969V38.8477C27.7227 39.207 28.4961 39.4844 29.3164 39.6797C30.1367 39.875 30.9141 39.9727 31.6484 39.9727C33.0781 39.9727 34.0977 39.707 34.707 39.1758C35.3164 38.6367 35.6211 37.8945 35.6211 36.9492C35.6211 36.3398 35.4609 35.8398 35.1406 35.4492C34.8281 35.0586 34.3398 34.7656 33.6758 34.5703C33.0195 34.375 32.1719 34.2773 31.1328 34.2773H29.6211V32.0625H31.1445C32.1367 32.0625 32.9336 31.9453 33.5352 31.7109C34.1367 31.4688 34.5703 31.1367 34.8359 30.7148C35.1094 30.293 35.2461 29.8008 35.2461 29.2383C35.2461 28.5039 35.0078 27.9336 34.5312 27.5273C34.0547 27.1133 33.3477 26.9062 32.4102 26.9062C31.832 26.9062 31.3047 26.9727 30.8281 27.1055C30.3594 27.2383 29.9258 27.4062 29.5273 27.6094C29.1289 27.8125 28.75 28.0312 28.3906 28.2656L27.0664 26.3555C27.7148 25.8711 28.4883 25.4609 29.3867 25.125C30.2852 24.7891 31.332 24.6211 32.5273 24.6211C34.2852 24.6211 35.6406 25 36.5938 25.7578C37.5469 26.5078 38.0234 27.5156 38.0234 28.7812Z" fill="white"/>
</svg>
