<svg width="32" height="32" viewBox="0 0 32 32" fill="none" xmlns="http://www.w3.org/2000/svg">
<path d="M25.0894 8.9193L21.5084 8.87945V6.53285C21.5084 3.43179 18.9852 0.90918 15.8841 0.90918C12.7834 0.90918 10.2608 3.43211 10.2608 6.53285V8.75381L6.80959 8.71522C6.67885 8.71809 6.55863 8.76369 6.46807 8.85362C6.37719 8.94354 6.32617 9.06599 6.32617 9.19354V30.5001C6.32617 30.7644 6.54014 30.9784 6.80448 30.9784H25.0846C25.3489 30.9784 25.5629 30.7644 25.5629 30.5001V9.39793C25.5626 9.13582 25.3515 8.92249 25.0894 8.9193ZM11.2174 6.53285C11.2174 3.95953 13.3108 1.8658 15.8841 1.8658C18.4577 1.8658 20.5518 3.95953 20.5518 6.53285V8.8686L11.2174 8.76433V6.53285V6.53285ZM24.606 30.0218H7.28248V9.67727L10.2608 9.71043V11.1431C9.60101 11.359 9.11951 11.9732 9.11951 12.7043C9.11951 13.6141 9.85962 14.3539 10.769 14.3539C11.6785 14.3539 12.4186 13.6138 12.4186 12.7043C12.4186 11.9512 11.9081 11.3211 11.2171 11.1243V9.72127L20.5515 9.82555V11.1339C19.8761 11.3405 19.3803 11.9623 19.3803 12.7043C19.3803 13.6141 20.1204 14.3539 21.0298 14.3539C21.9392 14.3539 22.6793 13.6138 22.6793 12.7043C22.6793 11.9623 22.1835 11.3402 21.5081 11.1339V9.83639L24.6056 9.87114V30.0218H24.606ZM10.769 12.0114C11.1511 12.0114 11.462 12.3223 11.462 12.7043C11.462 13.0864 11.1511 13.3973 10.769 13.3973C10.387 13.3973 10.0761 13.0864 10.0761 12.7043C10.0761 12.3223 10.387 12.0114 10.769 12.0114ZM21.0301 12.0114C21.4121 12.0114 21.723 12.3223 21.723 12.7043C21.723 13.0864 21.4121 13.3973 21.0301 13.3973C20.6481 13.3973 20.3372 13.0864 20.3372 12.7043C20.3372 12.3223 20.6481 12.0114 21.0301 12.0114Z" fill="#606060"/>
</svg>
