<svg width="32" height="32" viewBox="0 0 32 32" fill="none" xmlns="http://www.w3.org/2000/svg">
<path d="M26.3776 6.05105H23.7753V5.58904C23.7753 4.66916 23.028 3.9209 22.1097 3.9209C21.1885 3.9209 20.4393 4.66948 20.4393 5.58904V6.05105H17.5851V5.58904C17.5851 4.66916 16.8368 3.9209 15.9173 3.9209C14.9964 3.9209 14.2472 4.66948 14.2472 5.58904V6.05105H11.393V5.58904C11.393 4.66916 10.6448 3.9209 9.72519 3.9209C8.80531 3.9209 8.05705 4.66948 8.05705 5.58904V6.05105H5.46394C5.19998 6.05105 4.98633 6.26502 4.98633 6.52866V27.443C4.98633 27.7066 5.19998 27.9206 5.46394 27.9206H26.3779C26.6419 27.9206 26.8555 27.7066 26.8555 27.443V6.52866C26.8552 6.26502 26.6416 6.05105 26.3776 6.05105ZM21.3942 5.58904C21.3942 5.19612 21.7152 4.87612 22.1094 4.87612C22.501 4.87612 22.8197 5.19612 22.8197 5.58904V7.81471C22.8197 8.20794 22.501 8.52794 22.1094 8.52794C21.7152 8.52794 21.3942 8.20794 21.3942 7.81471V5.58904ZM15.2024 5.58904C15.2024 5.19612 15.5231 4.87612 15.9173 4.87612C16.3102 4.87612 16.6299 5.19612 16.6299 5.58904V7.81471C16.6299 8.20794 16.3102 8.52794 15.9173 8.52794C15.5231 8.52794 15.2024 8.20794 15.2024 7.81471V5.58904ZM9.01228 5.58904C9.01228 5.19612 9.33196 4.87612 9.72519 4.87612C10.1181 4.87612 10.4378 5.19612 10.4378 5.58904V7.81471C10.4378 8.20794 10.1181 8.52794 9.72519 8.52794C9.33228 8.52794 9.01228 8.20794 9.01228 7.81471V5.58904ZM25.9 26.965H5.94123V7.00595H8.05674V7.81439C8.05674 8.73459 8.805 9.48285 9.72488 9.48285C10.6444 9.48285 11.3927 8.73427 11.3927 7.81439V7.00595H14.2469V7.81439C14.2469 8.73459 14.9961 9.48285 15.917 9.48285C16.8365 9.48285 17.5848 8.73427 17.5848 7.81439V7.00595H20.439V7.81439C20.439 8.73459 21.1885 9.48285 22.1094 9.48285C23.028 9.48285 23.7749 8.73427 23.7749 7.81439V7.00595H25.8997V26.965H25.9Z" fill="white"/>
<path d="M21.7113 13.8997C21.5022 13.7395 21.2022 13.7787 21.0417 13.9889L15.0783 21.7816L11.1294 16.9259C10.9632 16.7211 10.662 16.6902 10.4575 16.8564C10.2528 17.023 10.2219 17.3239 10.3884 17.5283L14.7191 22.854C14.8099 22.9657 14.9458 23.0304 15.0897 23.0304C15.092 23.0304 15.0945 23.0304 15.0967 23.0304C15.2429 23.0281 15.3801 22.9591 15.469 22.8428L21.8005 14.5693C21.9607 14.3601 21.9209 14.0602 21.7113 13.8997Z" fill="white"/>
</svg>
