<svg width="25" height="26" viewBox="0 0 25 26" fill="none" xmlns="http://www.w3.org/2000/svg">
<g clip-path="url(#clip0_544_286)">
<path d="M23.0475 18.3956C22.2902 17.7464 21.4252 17.2058 20.6678 16.6647C19.045 15.4748 17.5308 15.4748 16.3409 17.3139C15.6917 18.3956 14.7181 18.3956 13.745 17.9632C11.0404 16.6652 8.87698 14.8261 7.57901 12.0134C7.0379 10.8236 7.0379 9.63373 8.33637 8.76825C8.98561 8.33577 9.74246 7.79465 9.63434 6.71293C9.52622 5.41496 6.38917 0.979941 5.0912 0.546948C4.55009 0.330705 4.00948 0.330705 3.46836 0.546948C0.547556 1.52055 -0.750411 4.00836 0.439435 6.82105C3.90085 15.4748 10.1749 21.4246 18.6125 25.1022C19.1531 25.3185 19.6942 25.3185 19.9105 25.4266C21.8577 25.4266 24.1292 23.5875 24.7785 21.7489C25.4277 20.018 24.1292 19.2611 23.0475 18.3956Z" fill="black"/>
</g>
<defs>
<clipPath id="clip0_544_286">
<rect width="24.9524" height="25.4263" fill="white"/>
</clipPath>
</defs>
</svg>
