<svg width="24" height="24" viewBox="0 0 24 24" fill="none" xmlns="http://www.w3.org/2000/svg">
<path d="M21.1399 14H21.1326C20.9179 8.99943 16.9686 5 12.1429 5C7.31714 5 3.36786 8.99943 3.15314 14H3.14586C1.96257 14 1 14.9613 1 16.1429C1 17.3244 1.96257 18.2857 3.14586 18.2857H4.85714V19.5714H5.71429V18.2857H18.5714V19.5714H19.4286V18.2857H21.1399C22.3231 18.2857 23.2857 17.3244 23.2857 16.1429C23.2857 14.9613 22.3231 14 21.1399 14ZM12.1429 5.85714C16.4954 5.85714 20.0509 9.47343 20.2651 14H4.02057C4.23486 9.47343 7.79029 5.85714 12.1429 5.85714ZM21.1399 17.4286H3.14586C2.43529 17.4286 1.85714 16.8517 1.85714 16.1429C1.85714 15.434 2.43529 14.8571 3.14586 14.8571H21.1394C21.85 14.8571 22.4281 15.434 22.4281 16.1429C22.4281 16.8517 21.8504 17.4286 21.1399 17.4286Z" fill="#4A586E"/>
<path d="M13.3034 9.41083C13.1358 9.24326 12.865 9.24326 12.6974 9.41083L12.1432 9.96498L11.5891 9.41083C11.4215 9.24326 11.1507 9.24326 10.9831 9.41083C10.8155 9.57841 10.8155 9.84926 10.9831 10.0168L11.5372 10.571L10.9831 11.1251C10.8155 11.2927 10.8155 11.5635 10.9831 11.7311C11.0667 11.8147 11.1764 11.8567 11.2861 11.8567C11.3958 11.8567 11.5055 11.8147 11.5891 11.7311L12.1432 11.177L12.6974 11.7311C12.781 11.8147 12.8907 11.8567 13.0004 11.8567C13.1101 11.8567 13.2198 11.8147 13.3034 11.7311C13.471 11.5635 13.471 11.2927 13.3034 11.1251L12.7492 10.571L13.3034 10.0168C13.471 9.84926 13.471 9.57841 13.3034 9.41083Z" fill="#4A586E"/>
</svg>
