<svg width="32" height="32" viewBox="0 0 32 32" fill="none" xmlns="http://www.w3.org/2000/svg">
<path fill-rule="evenodd" clip-rule="evenodd" d="M16.0013 29.3278C23.3651 29.3278 29.3346 23.3583 29.3346 15.9945C29.3346 8.63067 23.3651 2.66113 16.0013 2.66113C8.6375 2.66113 2.66797 8.63067 2.66797 15.9945C2.66797 23.3583 8.6375 29.3278 16.0013 29.3278Z" stroke="#4A586E" stroke-width="1.5"/>
<path d="M12.552 21.9941V10.5701H15.56C16.9573 10.5701 17.992 10.8528 18.664 11.4181C19.3467 11.9835 19.688 12.8048 19.688 13.8821C19.688 14.6075 19.5227 15.2315 19.192 15.7541C18.8613 16.2661 18.3707 16.6608 17.72 16.9381C17.08 17.2155 16.2853 17.3541 15.336 17.3541H13.992V21.9941H12.552ZM11.16 19.8181V18.7781H16.632V19.8181H11.16ZM11.16 17.3541V16.1381H14.824V17.3541H11.16ZM15.128 16.1381C15.7787 16.1381 16.328 16.0688 16.776 15.9301C17.2347 15.7915 17.5867 15.5621 17.832 15.2421C18.0773 14.9221 18.2 14.4848 18.2 13.9301C18.2 13.2048 17.976 12.6661 17.528 12.3141C17.08 11.9621 16.3813 11.7861 15.432 11.7861H13.992V16.1381H15.128Z" fill="#4A586E"/>
</svg>
