<svg width="24" height="24" viewBox="0 0 24 24" fill="none" xmlns="http://www.w3.org/2000/svg">
<path d="M23.5862 9.93063H21.1034V6.62029C21.1034 5.93587 20.5452 5.37891 19.8596 5.37891H15.7266C15.4068 5.37891 15.1175 5.50346 14.8966 5.70249C14.676 5.50346 14.3868 5.37891 14.0665 5.37891H9.93352C9.61366 5.37891 9.32441 5.50346 9.10345 5.70249C8.8829 5.50346 8.59366 5.37891 8.27338 5.37891H4.14041C3.45476 5.37891 2.89655 5.93587 2.89655 6.62029V9.93063H0.413793C0.185379 9.93063 0 10.116 0 10.3444V15.7237C0 15.9521 0.185379 16.1375 0.413793 16.1375H3.31034H4.13793V18.2065C4.13793 18.4349 4.32331 18.6203 4.55172 18.6203H6.2069C6.36372 18.6203 6.5069 18.5317 6.57683 18.3915L7.704 16.1375H16.296L17.4232 18.3915C17.4931 18.5317 17.6363 18.6203 17.7931 18.6203H19.4483C19.6767 18.6203 19.8621 18.4349 19.8621 18.2065V16.1375H20.6897H23.5862C23.8146 16.1375 24 15.9521 24 15.7237V10.3444C24 10.116 23.8146 9.93063 23.5862 9.93063ZM15.7266 6.20649H19.8596C20.0892 6.20649 20.2759 6.39229 20.2759 6.62029V10.3444V12.4134H15.3103V6.62029C15.3103 6.39229 15.497 6.20649 15.7266 6.20649ZM9.93352 6.20649H14.0665C14.2961 6.20649 14.4828 6.39229 14.4828 6.62029V12.4134H9.51724V6.62029C9.51724 6.39229 9.70386 6.20649 9.93352 6.20649ZM3.72414 6.62029C3.72414 6.39229 3.91076 6.20649 4.14041 6.20649H8.27338C8.50303 6.20649 8.68966 6.39229 8.68966 6.62029V12.4134H3.72414V10.3444V6.62029ZM0.827586 10.7582H2.89655V12.8272V15.3099H0.827586V10.7582ZM3.72414 13.241H9.10345H14.8966H20.2759V15.3099H19.4483H16.5517H7.44828H4.55172H3.72414V13.241ZM5.95117 17.7927H4.96552V16.1375H6.77876L5.95117 17.7927ZM19.0345 17.7927H18.0488L17.2212 16.1375H19.0345V17.7927ZM23.1724 15.3099H21.1034V12.8272V10.7582H23.1724V15.3099Z" fill="#4A586E"/>
</svg>
