<svg width="24" height="24" viewBox="0 0 24 24" fill="none" xmlns="http://www.w3.org/2000/svg">
<g clip-path="url(#clip0_284_702)">
<path d="M22.5033 11.2537C22.412 11.2273 22.3448 11.1465 22.3448 11.0515V8.2759C22.3448 6.22224 20.6727 4.55176 18.6178 4.55176H5.38221C3.3269 4.55176 1.65517 6.22224 1.65517 8.2759V11.0515C1.65517 11.1465 1.58797 11.2273 1.49673 11.2537C0.633163 11.5035 0 12.3018 0 13.2456V15.7242C0 15.953 0.185379 16.138 0.413793 16.138H0.627586C0.738043 16.138 0.827586 16.2275 0.827586 16.338V16.9656V19.2483C0.827586 19.3588 0.917129 19.4483 1.02759 19.4483H1.45517C1.56563 19.4483 1.65517 19.3588 1.65517 19.2483V17.5793C1.65517 17.4689 1.74472 17.3793 1.85517 17.3793H22.1448C22.2553 17.3793 22.3448 17.4689 22.3448 17.5793V19.2483C22.3448 19.3588 22.4344 19.4483 22.5448 19.4483H22.9724C23.0829 19.4483 23.1724 19.3588 23.1724 19.2483V16.9656V16.338C23.1724 16.2275 23.262 16.138 23.3724 16.138H23.5862C23.8146 16.138 24 15.953 24 15.7242V13.2456C24 12.3018 23.3668 11.5035 22.5033 11.2537ZM2.48276 8.2759C2.48276 6.67907 3.78372 5.37934 5.38221 5.37934H18.6174C20.2163 5.37934 21.5172 6.67907 21.5172 8.2759V10.9724C21.5172 11.0829 21.4277 11.1724 21.3172 11.1724H19.6483C19.5378 11.1724 19.4483 11.0829 19.4483 10.9724V8.68969C19.4483 8.52045 19.3452 8.36859 19.1884 8.30527C19.1007 8.27052 17.0326 7.44831 15.931 7.44831C14.8295 7.44831 12.7614 8.27052 12.6737 8.30527C12.5168 8.36859 12.4138 8.52045 12.4138 8.68969V10.9724C12.4138 11.0829 12.3243 11.1724 12.2138 11.1724H11.7862C11.6757 11.1724 11.5862 11.0829 11.5862 10.9724V8.68969C11.5862 8.52045 11.4832 8.36859 11.3263 8.30527C11.2386 8.27052 9.17048 7.44831 8.06897 7.44831C6.96745 7.44831 4.89931 8.27052 4.81159 8.30527C4.65476 8.36859 4.55172 8.52045 4.55172 8.68969V10.9724C4.55172 11.0829 4.46218 11.1724 4.35172 11.1724H2.68276C2.5723 11.1724 2.48276 11.0829 2.48276 10.9724V8.2759ZM18.6207 10.9724C18.6207 11.0829 18.5311 11.1724 18.4207 11.1724H13.4414C13.3309 11.1724 13.2414 11.0829 13.2414 10.9724V9.11229C13.2414 9.02885 13.293 8.95414 13.3714 8.92553C14.0882 8.66386 15.2885 8.2759 15.931 8.2759C16.5728 8.2759 17.7736 8.66391 18.4907 8.92592C18.5691 8.95454 18.6207 9.02924 18.6207 9.11265V10.9724ZM10.7586 10.9724C10.7586 11.0829 10.6691 11.1724 10.5586 11.1724H5.57931C5.46885 11.1724 5.37931 11.0829 5.37931 10.9724V9.11229C5.37931 9.02885 5.43094 8.95414 5.50931 8.92553C6.22614 8.66386 7.42645 8.2759 8.06897 8.2759C8.71074 8.2759 9.91149 8.66391 10.6287 8.92592C10.707 8.95454 10.7586 9.02924 10.7586 9.11265V10.9724ZM22.3448 16.3518C22.3448 16.4622 22.2553 16.5518 22.1448 16.5518H1.85517C1.74472 16.5518 1.65517 16.4622 1.65517 16.3518V16.338C1.65517 16.2275 1.74472 16.138 1.85517 16.138H22.1448C22.2553 16.138 22.3448 16.2275 22.3448 16.338V16.3518ZM23.1724 15.1104C23.1724 15.2208 23.0829 15.3104 22.9724 15.3104H22.7586H1.24138H1.02759C0.917129 15.3104 0.827586 15.2208 0.827586 15.1104V13.2456C0.827586 12.5591 1.38538 12 2.07103 12H4.96552H11.1724H12.8276H19.0345H21.929C22.6146 12 23.1724 12.5591 23.1724 13.2456V15.1104Z" fill="#4A586E"/>
</g>
<defs>
<clipPath id="clip0_284_702">
<rect width="24" height="24" fill="white"/>
</clipPath>
</defs>
</svg>
