<svg width="177" height="272" viewBox="0 0 177 272" fill="none" xmlns="http://www.w3.org/2000/svg">
<path d="M175.208 69.7252C178.106 61.8003 177.611 42.2237 172.827 29.2983C170.97 20.0514 162.163 10.1115 152.747 1.83496H130.769H122.403H66.4851C56.481 13.5743 49.3108 28.6034 46.0367 37.8365C59.7911 35.9968 91.4859 47.6484 91.4859 48.2617C91.4859 48.7523 83.1137 48.8749 78.9276 48.8749C58.8342 50.8373 41.0532 64.0016 34.6744 70.3385C23.6709 81.1316 16.1359 100.592 13.7439 108.973C38.1429 108.482 52.6149 116.945 56.801 121.238C53.8109 122.464 28.0962 124.304 17.93 124.917C9.79695 125.408 6.16902 130.028 5.37169 132.276C-5.15339 158.278 2.18227 201.164 7.16574 219.357C10.0362 235.547 23.1128 260.853 29.2923 271.483C31.6844 269.03 48.2295 261.466 56.203 257.991C77.1336 243.273 74.1828 236.033 74.7415 231.009C75.35 225.537 75.1402 223.241 75.9376 221.81C80.1237 223.036 81.3197 227.942 95.6721 223.65C110.024 219.357 113.015 207.092 119.593 197.28C124.855 189.431 125.374 178.474 124.975 173.977C123.181 166.618 111.819 158.032 110.623 156.806C109.427 155.579 106.436 153.127 108.829 153.74C111.221 154.353 123.181 157.419 134.543 154.966C145.905 152.513 154.876 125.531 155.474 108.973C156.072 92.4153 141.121 75.8577 138.729 73.4047C136.816 71.4423 137.533 70.1341 138.131 69.7252C143.314 71.1561 155.235 74.3859 161.454 75.8577C169.228 77.6974 173.414 74.6312 175.208 69.7252Z" fill="#FF7B73"/>
<path d="M53.2132 223.65C55.6053 224.263 59.6718 226.716 56.8013 231.622C53.2132 237.755 46.6351 226.103 53.2132 223.65Z" fill="#FF867F"/>
<path d="M37.6648 218.744C34.3159 222.669 34.6748 215.882 35.2728 211.998C35.7537 205.587 96.1767 61.9627 122.312 1.80859H130.853C109.587 51.9959 63.8204 158.204 37.6648 218.744Z" fill="#FF867F"/>
<path d="M155.474 46.4222C153.082 34.6479 138.929 33.7485 132.151 34.7706C130.357 38.4501 136.935 39.6766 144.71 43.9693C150.929 47.4034 154.477 47.0355 155.474 46.4222Z" fill="#FF867F"/>
<path d="M75.3398 16.9865C70.5557 17.9677 72.1504 20.2571 73.5458 21.2792C77.7319 24.3454 92.0843 23.7322 95.0744 23.1189C98.0644 22.5057 98.6625 21.2792 98.0644 18.213C97.4664 15.1468 81.32 15.76 75.3398 16.9865Z" fill="#FF867F"/>
<path d="M114.211 103.454C105.599 100.02 109.028 106.111 111.819 109.586C114.61 112.244 121.865 118.295 128.563 121.238C135.261 124.182 134.145 120.012 132.749 117.559C130.158 114.288 122.822 106.888 114.211 103.454Z" fill="#FF867F"/>
<path d="M84.9081 180.11C78.2103 175.204 78.5292 180.518 79.5259 183.789C79.5259 184.402 81.5592 187.959 89.6922 197.28C97.8252 206.602 96.669 199.12 95.0743 194.214C94.4763 191.557 91.6058 185.016 84.9081 180.11Z" fill="#FF867F"/>
<path d="M35.2728 162.939C42.9274 161.467 38.4622 158.237 35.2728 156.806C22.1165 154.353 17.9303 159.873 19.1263 161.099C20.3223 162.326 25.7045 164.778 35.2728 162.939Z" fill="#FF867F"/>
<path d="M46.635 83.8302C39.9372 85.302 43.8442 87.7141 46.635 88.7361C55.6051 91.8024 67.5655 88.7361 66.3695 85.6699C65.1735 82.6037 55.0072 81.9904 46.635 83.8302Z" fill="#FF867F"/>
</svg>
