<svg width="32" height="32" viewBox="0 0 32 32" fill="none" xmlns="http://www.w3.org/2000/svg">
<path d="M19.9393 23.2911C19.6966 23.1898 19.4175 23.3022 19.3149 23.5446C18.7489 24.8837 17.4441 25.7485 15.9913 25.7485C14.6062 25.7485 13.3265 24.9386 12.7313 23.6856C12.6185 23.4483 12.3349 23.3464 12.0964 23.4598C11.8585 23.5722 11.7575 23.8568 11.8705 24.0944C12.6227 25.678 14.2403 26.7014 15.9913 26.7014C17.8281 26.7014 19.4772 25.6078 20.1928 23.9156C20.295 23.6732 20.182 23.3937 19.9393 23.2911Z" fill="white"/>
<path d="M13.6481 18.7819C13.8237 18.5859 13.8072 18.2848 13.6112 18.1092C13.4149 17.9335 13.1145 17.9501 12.9385 18.146C12.3538 18.7987 11.7687 19.1173 11.1938 19.0881C10.3039 19.0455 9.66481 18.1924 9.65783 18.1829C9.50315 17.9707 9.20617 17.924 8.99369 18.0781C8.78057 18.2324 8.73324 18.5307 8.8876 18.7438C8.92381 18.7937 9.79154 19.9698 11.1389 20.0394C11.1814 20.0416 11.2237 20.0428 11.2659 20.0428C12.0971 20.0428 12.8982 19.6191 13.6481 18.7819Z" fill="white"/>
<path d="M22.1664 18.1459C21.582 18.7983 20.9948 19.1185 20.4218 19.088C19.5343 19.0457 18.8959 18.198 18.8845 18.1828C18.7298 17.9706 18.4319 17.9242 18.22 18.0783C18.0069 18.2326 17.9599 18.5306 18.1143 18.7437C18.1505 18.7935 19.0189 19.97 20.3671 20.0392C20.4094 20.0418 20.4516 20.0427 20.4936 20.0427C21.3251 20.0427 22.1261 19.619 22.876 18.7818C23.0516 18.5858 23.0351 18.2847 22.8392 18.1091C22.6432 17.9331 22.3415 17.95 22.1664 18.1459Z" fill="white"/>
<path d="M27.1114 14.0416C27.0365 12.742 26.6325 9.27293 24.4571 7.23287C23.2594 6.10946 21.7199 5.60254 19.8837 5.72705C18.8143 5.79946 17.8389 5.8849 16.9782 5.95986C11.6187 6.42898 10.0014 6.57001 8.34817 1.96455C8.27512 1.76 8.06295 1.63168 7.84538 1.65201C7.78313 1.65805 7.72246 1.67615 7.66688 1.70537C7.52744 1.77906 4.24105 3.55359 3.28026 7.11409C2.69489 9.28278 3.10652 11.6185 4.50245 14.0642C2.4427 14.3834 0.859375 16.163 0.859375 18.3101C0.859375 20.6843 2.78954 22.6157 5.16214 22.6157H5.47182C7.11073 26.9995 11.1721 30.1125 15.9141 30.1125C20.6549 30.1125 24.715 26.9998 26.3536 22.6157H26.5982C28.9701 22.6157 30.9 20.6843 30.9 18.3101C30.8997 16.1116 29.2414 14.2954 27.1114 14.0416ZM4.19754 7.37104C4.84484 4.96 6.76834 3.42813 7.65544 2.83133C9.51637 7.5686 11.8016 7.3685 17.0611 6.9089C17.917 6.83395 18.8877 6.74914 19.9482 6.67736C21.508 6.57096 22.8058 6.99148 23.8031 7.92528C25.7578 9.75603 26.1024 13.0783 26.163 14.1795C21.9886 15.1123 20.5482 10.6523 20.4878 10.4573C20.4345 10.2836 20.2868 10.1553 20.1073 10.1267C19.9263 10.0981 19.7475 10.1743 19.6427 10.3233C16.988 14.0991 12.6538 14.8935 10.9136 15.0599C8.63339 15.2775 6.50503 14.8592 5.58172 14.0169C4.11718 11.6424 3.65124 9.40633 4.19754 7.37104ZM1.81223 18.3101C1.81223 16.622 3.06904 15.2257 4.69525 14.9974V18.3101C4.69525 19.4745 4.85882 20.5992 5.15897 21.6626C3.31329 21.661 1.81223 20.1577 1.81223 18.3101ZM15.9138 29.1596C10.2532 29.1596 5.6481 24.2928 5.6481 18.3104V15.2181C6.6451 15.7692 8.07152 16.0725 9.69074 16.0725C10.1167 16.0725 10.5562 16.0515 11.0044 16.0087C12.7685 15.84 17.0141 15.0679 19.9091 11.5461C20.6079 13.0075 22.4793 15.8683 26.1767 15.1485V18.3104C26.1767 24.2924 21.5728 29.1596 15.9138 29.1596ZM26.6668 21.6594C26.9663 20.597 27.1296 19.4735 27.1296 18.3101V15.0069C28.7237 15.2619 29.9468 16.6439 29.9468 18.3101C29.9468 20.1355 28.4813 21.6222 26.6668 21.6594Z" fill="white"/>
</svg>
