<svg width="55" height="70" viewBox="0 0 55 70" fill="none" xmlns="http://www.w3.org/2000/svg">
<path d="M27.7782 18.3076C18.3646 17.6584 21.4808 14.4447 21.4808 14.4447C25.6033 8.63425 33.7834 7.85519 33.7834 7.85519C37.3217 7.30336 53.9416 5.81016 53.0652 11.361C52.5782 14.4772 47.6117 17.3013 44.0735 17.6584L27.7782 18.3076Z" fill="#917850"/>
<path d="M21.5782 26.8125C21.5782 26.8125 23.8504 24.4104 26.3824 19.8984C26.3824 19.8984 28.5897 16.3277 29.0117 12.4648C29.0117 12.4648 29.3363 9.28369 31.3164 6.6219C31.3164 6.6219 33.1342 4.02504 35.8609 3.99258C35.8609 3.99258 38.8798 3.79781 40.5678 5.58316C40.5678 5.58316 43.0023 7.40096 43.6515 9.90044C43.6515 9.90044 44.4306 11.6209 44.3657 13.9905C44.3657 13.9905 44.5604 17.0418 43.5217 19.6062L41.3468 25.0596L39.9185 28.5005C39.9185 28.5005 39.4965 29.6041 39.3992 30.8701C39.3992 30.8701 38.6526 37.3298 42.9699 42.5235C42.9699 42.5235 43.6515 43.8869 43.4243 45.2827C43.4243 45.2827 43.3594 47.0356 41.8013 48.3665C41.8013 48.3665 39.4316 50.444 35.8934 50.5089C35.8934 50.5089 30.4075 50.8984 26.8693 49.8597C26.8693 49.8597 22.2923 49.2429 18.2023 46.9058C18.2023 46.9058 15.086 45.445 14.3394 43.2377C14.3394 43.2377 13.6253 41.0628 13.885 38.7256C13.885 38.7256 15.3457 33.2073 21.5782 26.8125Z" fill="#EFE4E4"/>
<path d="M28.8163 60.6692C29.4655 59.8577 29.7901 58.332 32.3221 58.3645C32.3221 58.3645 35.4383 57.8451 37.7106 60.9614C37.7106 60.9614 39.5933 62.2273 40.5022 63.9477C41.5085 65.7656 32.6142 70.1153 26.4791 66.3498C25.1807 65.5708 27.3231 62.6169 28.8163 60.6692Z" fill="#BBC9DD"/>
<path d="M27.5836 61.9672C28.0381 63.8175 26.1229 64.2719 26.1229 64.2719C22.747 65.7002 18.8841 64.2719 18.8841 64.2719C16.125 64.3693 16.3522 61.9672 16.3522 61.9672C17.2936 59.6625 21.4161 57.9096 21.4161 57.9096C24.4025 56.1892 27.1292 60.0845 27.5836 61.9672Z" fill="#BBC9DD"/>
<path d="M21.9347 56.1571C20.9609 55.3456 20.6687 54.5016 20.6687 54.5016L20.5389 52.7162C20.4415 51.8723 19.8247 51.0607 19.8247 51.0607C18.2666 48.3665 18.5588 47.1005 18.5588 47.1005C19.7923 45.8995 21.253 48.334 21.253 48.334C21.0258 50.444 21.9022 52.1644 21.9022 52.1644C22.097 52.5864 22.7137 52.9435 22.7137 52.9435C23.5577 53.4628 23.4279 54.177 23.4279 54.177L23.363 56.3843C23.363 57.9749 23.8174 58.4943 23.8174 58.4943C24.7263 59.3382 25.9923 61.2534 25.9923 61.2534C26.5441 63.0388 25.1158 63.1686 25.1158 63.1686C24.4342 62.8765 23.363 63.4608 23.363 63.4608C21.4153 63.8828 19.8896 63.2011 19.8896 63.2011C19.4352 62.7466 18.364 63.2011 18.364 63.2011C16.8708 63.1037 17.4875 62.0974 17.4875 62.0974C18.9158 59.3707 22.6164 58.1697 22.6164 58.1697C22.519 57.0335 21.9347 56.1571 21.9347 56.1571Z" fill="#F6B821"/>
<path d="M35.7631 50.5416L35.828 52.4244C35.7956 53.0087 36.1851 53.6254 36.1851 53.6254C36.7045 54.8589 35.6982 55.7678 35.6982 55.7678C33.9453 57.0338 33.5883 59.4359 33.5883 59.4359C36.4123 60.1825 37.938 62.8118 37.938 62.8118C39.5935 63.3637 39.5935 64.2401 39.5935 64.2401C39.561 64.9542 37.4835 65.2788 37.4835 65.2788C37.1589 65.0841 36.1527 65.8307 36.1527 65.8307C35.1788 66.5448 32.16 66.4474 32.16 66.4474C31.2835 66.1553 30.2448 66.5773 30.2448 66.5773C29.693 66.5773 28.7191 66.4474 28.7191 66.4474C27.3558 66.3176 27.6155 64.8244 27.6155 64.8244C28.1348 62.9092 29.5631 61.2212 29.5631 61.2212C30.3422 59.5008 32.582 59.2087 32.582 59.2087C32.582 58.7542 32.939 57.9427 32.939 57.9427L34.5945 53.3657V50.6066C35.1788 49.6327 35.7631 50.5416 35.7631 50.5416Z" fill="#F6B821"/>
<path d="M28.459 61.9678L33.815 66.5772C33.815 66.5772 31.5752 62.3573 28.459 61.9678Z" fill="#BBC9DD"/>
<path d="M37.0281 60.2793L33.8145 66.5767C33.8145 66.5767 34.1391 62.162 37.0281 60.2793Z" fill="#BBC9DD"/>
<path d="M21.4149 63.5903C21.4149 63.5903 20.1489 60.8312 18.4609 59.5977C18.4934 59.5977 21.4149 60.3118 21.4149 63.5903Z" fill="#BBC9DD"/>
<path d="M25.3103 59.1758C25.3103 59.1758 21.1228 61.4156 21.415 63.5904L25.3103 59.1758Z" fill="#BBC9DD"/>
<path d="M33.7826 66.9013C33.5229 66.9013 33.3281 66.6741 33.3281 66.4144C33.3281 66.1547 33.5229 65.96 33.7826 65.96C34.0423 65.96 34.2695 66.1547 34.2695 66.4144C34.2695 66.6741 34.0423 66.9013 33.7826 66.9013Z" fill="#184F4F"/>
<path d="M21.3834 63.8828C21.1237 63.8828 20.8965 63.688 20.8965 63.4283C20.8965 63.1686 21.1237 62.9414 21.3834 62.9414C21.6431 62.9414 21.8378 63.1686 21.8378 63.4283C21.8378 63.688 21.6431 63.8828 21.3834 63.8828Z" fill="#1C5151"/>
<path opacity="0.5" d="M22.0643 30.2214L26.3816 27.592C25.6674 29.8643 27.1282 29.6695 27.1282 29.6695C27.6151 29.6046 30.4392 27.1376 30.4392 27.1376C30.7963 25.969 32.1921 26.2287 32.1921 26.2287C31.3156 29.0203 33.2308 29.6695 33.2308 29.6695C34.4643 31.5523 35.6329 29.6695 35.6329 29.6695C35.6654 34.0193 38.7491 35.0905 38.7491 35.0905C39.723 41.6151 43.0015 42.5889 43.0015 42.5889C43.5858 44.3094 43.0015 46.1272 43.0015 46.1272C41.5083 49.7628 33.9774 50.0874 33.9774 50.0874C26.6413 50.834 18.7533 45.4779 18.7533 45.4779C11.8391 38.5638 22.0643 30.2214 22.0643 30.2214Z" fill="#D3D3D3"/>
<path opacity="0.5" d="M39.2687 22.7227C39.2687 22.7227 34.6917 31.0326 37.8729 31.13C37.8729 31.13 37.5483 26.0986 39.2687 22.7227Z" fill="#CCCEDA"/>
<path d="M23.3628 24.6055L40.5995 40.0893L43.0016 42.5238C43.0016 42.5238 43.3587 43.3678 43.4236 44.017C43.4236 44.017 28.6215 32.6233 22.7461 25.417C22.7461 25.417 22.811 24.8976 23.3628 24.6055Z" fill="#F2B844"/>
<path d="M30.2461 33.0123C30.2461 33.0123 30.3435 31.9087 31.3822 31.8438C31.3822 31.8438 32.4534 32.2008 32.843 33.1746C32.843 33.1746 32.6157 33.9862 31.7068 34.3757C31.7068 34.3757 30.6032 33.9537 30.2461 33.0123Z" fill="#C19A55"/>
<path d="M30.6016 33.0127C30.6016 33.0127 30.7963 32.2012 31.4131 32.2012C31.4131 32.2012 32.1597 32.4933 32.4843 33.1101C32.4843 33.1101 32.1921 33.8242 31.5429 34.0514C31.5429 34.0514 30.7639 33.597 30.6016 33.0127Z" fill="#F2B844"/>
<path d="M30.7978 32.2663C31.09 32.3312 31.2198 32.6234 31.2198 32.6234C31.1873 32.7532 31.1224 32.7857 31.1224 32.7857C30.7978 32.7532 30.668 32.3637 30.668 32.3637C30.7004 32.2338 30.7978 32.2663 30.7978 32.2663Z" fill="#A8854E"/>
<path d="M40.1458 39.1798C38.8149 35.6416 39.3992 30.8699 39.3992 30.8699C39.3992 30.8699 40.0809 29.9934 42.1259 32.1683C44.1709 34.3432 45.0149 38.206 45.0149 38.206C45.7291 42.3935 44.3657 42.8154 44.3657 42.8154C42.905 43.3348 40.8599 41.0626 40.1458 39.1798Z" fill="#7C7777"/>
<path d="M20.9289 31.357C19.2734 34.4732 19.4357 35.09 18.6242 36.713C16.5467 40.9329 13.82 40.4136 13.82 40.4136C7.65248 39.9591 6.0619 35.7717 6.0619 35.7717C5.28284 33.9863 6.67865 34.3759 6.67865 34.3759C8.56138 35.3821 8.98337 35.2198 8.98337 35.2198C2.26399 30.0261 1.67969 26.1308 1.67969 26.1308C0.900631 24.313 2.58859 23.6962 2.58859 23.6962C0.154033 20.8072 0.673406 16.6198 0.673406 16.6198C0.673406 14.3475 2.49121 13.3737 2.49121 13.3737C4.89331 19.0544 7.78232 21.3591 7.78232 21.3591C6.15928 18.957 5.60745 13.7957 5.60745 13.7957C5.21792 11.7182 5.80221 9.90041 5.80221 9.90041C5.83467 8.8292 6.8085 8.95905 6.8085 8.95905C7.94463 9.12135 7.68494 10.4847 7.68494 10.4847C7.7174 11.5884 8.13939 13.5036 8.13939 13.5036C8.85353 16.847 11.1582 19.9957 11.1582 19.9957C13.3007 23.3392 16.9687 25.7088 16.9687 25.7088C19.8902 27.2994 21.8378 26.5203 21.8378 26.5203C23.5258 27.0722 21.6106 30.091 20.9289 31.357Z" fill="#7C7777"/>
<path opacity="0.4" d="M18.5602 36.7777C17.9759 38.141 16.4827 39.2447 16.4827 39.2447C15.6712 39.6667 12.068 39.5044 12.068 39.5044C10.4774 39.4395 8.59472 38.206 8.59472 38.206C6.35492 37.3295 5.99785 35.2196 5.99785 35.2196C5.80309 34.3431 6.90676 34.6028 6.90676 34.6028C7.55597 35.3494 10.9319 36.7452 10.9319 36.7452C12.2952 37.7191 15.1843 37.8814 15.1843 37.8814C17.2942 37.784 17.1968 36.7128 17.1968 36.7128C17.1968 35.5766 15.9633 35.5117 15.9633 35.5117C12.1329 35.3494 9.86069 34.051 9.86069 34.051C4.66696 32.2007 2.979 28.3703 2.979 28.3703C2.03763 25.4164 3.95282 23.5337 3.95282 23.5337C4.95911 21.7483 6.90676 23.4038 6.90676 23.4038C7.1989 23.8908 9.63346 26.0656 9.63346 26.0656C9.79577 26.7798 17.7162 29.896 17.7162 29.896C19.0146 29.7986 17.8136 28.9222 17.8136 28.9222C17.2618 28.4353 13.5288 26.8122 13.5288 26.8122C11.0617 25.5787 10.6073 24.118 10.6073 24.118C13.3665 24.475 13.4314 22.9494 13.4314 22.9494C16.8722 27.3965 21.4167 27.0719 21.4167 27.0719C20.1183 29.2468 20.1183 32.6227 20.1183 32.6227L18.5602 36.7777Z" fill="#E2E2E1"/>
<path d="M39.2687 12.8544C39.2687 12.8544 40.4698 10.29 42.2551 11.8806C42.2551 11.8806 43.2614 12.9518 43.1965 15.646C43.1965 15.646 43.1965 17.4638 42.2551 18.3403C42.2551 18.3403 40.5022 19.7036 39.6907 16.5225C39.6907 16.5225 39.1064 15.4512 39.2687 12.8544Z" fill="white"/>
<path d="M33.7503 15.8729C32.9713 18.3075 30.7315 17.7557 30.7315 17.7557C29.6603 16.7494 29.7901 14.8667 29.7901 14.8667C30.0173 12.1399 31.3158 11.1337 31.3158 11.1337C33.8802 9.51062 34.3346 12.3672 34.3346 12.3672C34.5294 14.9316 33.7503 15.8729 33.7503 15.8729Z" fill="white"/>
<path d="M40.5673 14.4123C40.827 15.1914 41.7034 15.2563 41.7034 15.2563C42.5798 15.1265 42.5798 14.2176 42.5798 14.2176C43.5861 16.3924 41.8982 17.983 41.8982 17.983C41.1516 18.6322 40.6322 18.3725 40.6322 18.3725C38.7819 16.6521 39.2688 12.8867 39.2688 12.8867C40.9243 11.7505 42.028 13.3411 42.028 13.3411C40.5023 13.2762 40.5673 14.4123 40.5673 14.4123Z" fill="#34BAD7"/>
<path d="M31.2512 12.595C31.2512 12.595 32.6795 11.1991 34.335 12.3677C34.335 12.3677 34.7895 15.1918 32.712 17.3992C32.712 17.3992 31.868 18.1782 31.1538 17.2693C31.1538 17.2693 29.6931 15.6463 30.6994 13.4714C30.6994 13.4714 30.6669 14.3803 31.5758 14.5101C31.5758 14.5101 32.4523 14.4452 32.712 13.6662C32.712 13.6662 32.7444 12.53 31.2512 12.595Z" fill="#34BAD7"/>
<path d="M40.9238 14.9648C41.5405 15.3868 42.1248 15.1271 42.1248 15.1271C42.5468 18.4381 40.5343 18.3082 40.5343 18.3082C39.0086 16.815 39.2034 13.6014 39.2034 13.6014C39.885 12.8873 41.0212 13.569 41.0212 13.569C40.307 14.5103 40.9238 14.9648 40.9238 14.9648Z" fill="#202020"/>
<path d="M32.1283 12.757C32.1283 12.757 33.6865 12.5298 34.3681 13.2439C34.3357 13.2439 34.2058 17.1392 32.1608 17.6586C32.1608 17.6586 30.4728 17.4638 30.9273 14.1528C30.9273 14.1528 31.4791 14.8021 32.3231 14.2178C32.3231 14.2178 32.9723 13.3413 32.1283 12.757Z" fill="#202020"/>
<path d="M33.1668 15.4517C33.1668 15.4517 34.303 14.2182 35.2119 12.9522C35.2119 12.9522 36.4454 12.2381 37.549 13.147C37.549 13.147 38.7176 14.2507 39.1072 15.9711C39.1072 15.9711 39.3993 17.2046 39.1072 17.8214C39.1072 17.8214 38.1658 19.7041 36.3155 20.4832C36.3155 20.4832 35.6663 20.9376 34.9846 21.0674C34.9846 21.0674 34.8548 20.3533 34.238 19.5093L32.9721 17.7564C32.9721 17.7564 32.3878 16.3606 33.1668 15.4517Z" fill="#EC762B"/>
<path d="M33.1328 1.98046C33.1328 1.98046 33.8469 0.195113 34.9831 1.68831C34.9831 1.68831 34.3663 2.30506 33.1328 1.98046Z" fill="#99825E"/>
<path d="M26.6738 8.08235C26.6738 8.08235 28.1995 2.53155 33.8152 1.84987C33.8152 1.84987 39.0739 0.486517 42.9042 4.18705L44.365 5.45302L27.0309 9.64046L26.6738 8.08235Z" fill="#F2B844"/>
<path d="M20.9946 15.7432C20.67 14.2825 21.936 11.7505 21.936 11.7505C23.6889 8.47199 27.5517 7.40078 27.5517 7.40078C41.2177 2.6615 50.3067 7.01125 50.3067 7.01125C54.3643 9.41335 53.0335 11.7505 53.0335 11.7505C52.8387 10.9065 52.2219 10.4196 52.2219 10.4196C44.8209 4.99868 27.5517 12.1076 27.5517 12.1076C23.0721 13.7956 20.9946 15.7432 20.9946 15.7432Z" fill="#C19A55"/>
</svg>
