<svg width="32" height="32" viewBox="0 0 32 32" fill="none" xmlns="http://www.w3.org/2000/svg">
<path d="M8.60637 20.2858H13.9944V25.6781C13.9944 25.9448 14.2106 26.1614 14.4777 26.1614H17.4076C17.6744 26.1614 17.891 25.9448 17.891 25.6781V20.2858H23.279C23.5458 20.2858 23.7623 20.0693 23.7623 19.8025V16.8745C23.7623 16.6077 23.5458 16.3912 23.279 16.3912H17.891V11.0009C17.891 10.7338 17.6744 10.5176 17.4076 10.5176H14.4777C14.2106 10.5176 13.9944 10.7338 13.9944 11.0009V16.3912H8.60637C8.33925 16.3912 8.12305 16.6077 8.12305 16.8745V19.8025C8.12305 20.0693 8.33925 20.2858 8.60637 20.2858ZM9.08969 17.3579H14.4777C14.7449 17.3579 14.9611 17.1413 14.9611 16.8745V11.4842H16.9243V16.8745C16.9243 17.1413 17.1408 17.3579 17.4076 17.3579H22.7957V19.3192H17.4076C17.1408 19.3192 16.9243 19.5357 16.9243 19.8025V25.1947H14.9611V19.8025C14.9611 19.5357 14.7449 19.3192 14.4777 19.3192H9.08969V17.3579Z" fill="#606060"/>
<path d="M28.5823 7.24477H24.0358C23.8518 4.86265 22.2311 2.99316 20.2646 2.99316H11.6209C9.65446 2.99316 8.03373 4.86265 7.85007 7.24477H3.30363C3.03652 7.24477 2.82031 7.46098 2.82031 7.72809V28.4116C2.82031 28.6784 3.03652 28.8949 3.30363 28.8949H28.5823C28.849 28.8949 29.0656 28.6784 29.0656 28.4116V7.72809C29.0656 7.4613 28.849 7.24477 28.5823 7.24477ZM11.6209 3.9598H20.2646C21.7056 3.9598 22.8955 5.3972 23.065 7.24477H8.8209C8.99006 5.39688 10.1803 3.9598 11.6209 3.9598ZM28.0989 27.9283H3.78695V8.21141H28.0989V27.9283Z" fill="#606060"/>
</svg>
