<svg width="423" height="319" viewBox="0 0 423 319" fill="none" xmlns="http://www.w3.org/2000/svg">
<path d="M55.728 76.9376C44.5551 80.3458 48.1694 86.6733 50.1657 92.93C57.1698 103.302 59.9104 114.787 62.2728 120.086C64.1627 124.324 65.0139 146.399 65.2032 156.906C59.8775 182.325 81.8934 197.9 85.2833 201.944C87.9952 205.18 114.815 211.245 127.885 213.873C122.594 216.239 92.4452 218.601 78.0321 219.487C69.1505 220.917 70.4264 230.302 72.1746 234.817C103.617 301.783 152.614 286.19 156.175 286.221C160.953 286.262 174.289 284.74 180.292 283.379L132.518 300.773C120.642 305.449 110.602 300.248 107.066 297.063C95.945 296.317 93.1808 305.656 93.1889 310.419C94.0751 313.207 95.7694 315.888 98.0444 318.432L346.266 318.432C347.216 313.196 347.426 308.617 347.274 305.614C361.457 307.533 385.71 289.219 396.064 279.822C428.443 257.079 426.529 218.268 421.525 201.706C421.772 173.791 404.503 138.617 394.392 117.718C390.285 109.228 352.603 64.9121 340.237 58.5268C330.344 53.4185 328.383 65.1522 328.64 71.6576C330.606 86.0308 327.358 110.892 325.488 121.525C319.461 140.744 310.796 146.102 307.218 146.379C322.721 94.3235 302.596 68.2704 290.077 56.3341C254.201 22.1272 224.951 33.0305 219.66 35.3969C215.427 37.2901 224.722 56.1705 224.917 56.0835C225.111 55.9965 226.379 59.1964 226.393 59.3951C226.875 66.1702 224.957 79.8974 223.938 85.9141C222.02 100.118 216.344 103.874 213.746 103.977C216.891 85.4112 198.717 59.5924 189.236 49.0037C179.799 34.9533 168.401 36.0787 163.027 32.9214C158.728 30.3955 138.749 41.9261 129.296 48.0071C119.895 55.3893 126.576 63.2579 131.092 66.2695C141.987 72.2008 148.057 81.1901 149.73 84.9433C154.396 104.305 144.676 96.7366 140.412 97.8491C137.001 98.739 123.959 81.1108 117.864 72.1854C106.015 58.4193 64.6686 72.6743 55.728 76.9376Z" fill="white" fill-opacity="0.2"/>
<path d="M180.583 156.089C177.578 153.62 162.354 147.824 155.118 145.234C144.536 149.967 197.048 179.971 224.627 194.382L221.32 195.861C211.843 193.109 172.396 214.828 153.857 226.032C142.397 233.065 151.838 235.144 157.992 235.305C173.242 242.466 215.053 215.611 234.052 201.288C240.158 202.529 267.123 230.983 271.54 233.774C275.074 236.007 281.265 243.724 283.919 247.304C274.565 247.674 249.447 259.543 238.058 265.431C219.539 273.714 211.933 284.529 210.445 288.902C226.591 302.17 279.266 260.796 286.989 254.729L287.167 254.589C294.218 249.053 299.45 255.451 296.663 259.875C294.535 263.253 283.629 298.807 276.304 318.223L295.048 318.223C296.55 314.453 298.449 309.185 301.661 301.332C308.34 284.999 306.12 271.004 304.175 266.048C305.356 268.698 337.554 303.55 344.841 307.441C350.671 310.553 350.357 307.357 349.471 305.37C334.198 276.453 316.812 258.808 314.084 254.467C311.901 250.995 312.875 249.977 313.635 249.902C329.045 247.458 343.228 237.99 348.393 233.562C355.078 228.983 362.317 204.297 360.841 200.985C359.364 197.674 359.86 186.331 355.23 188.401C351.526 190.058 345.081 203.003 342.322 209.268C339.799 213.574 332.169 221.488 328.669 224.907C322.083 227.216 311.485 239.742 307.009 245.715C289.254 218.703 257.476 194.519 243.807 185.804C266.104 150.411 262.171 129.133 262.595 119.41C262.935 111.632 258.516 113.82 256.265 115.886L244.974 136.823C238.285 147.441 237.188 171.552 237.476 182.28L200.673 163.786C201.747 146.623 190.526 121.455 180.463 129.133C170.401 136.811 184.339 159.176 180.583 156.089Z" fill="#FF867F"/>
</svg>
