<svg width="625" height="470" viewBox="0 0 625 470" fill="none" xmlns="http://www.w3.org/2000/svg">
<path d="M439.366 287.683C405.674 317.966 392.724 453.467 374.067 465.657C365.408 476.628 322.761 463.768 298.961 460.31C251.866 453.467 203.188 426.934 181.975 407.804C158.765 378.498 105.544 360.589 81.835 355.298C36.9124 357.252 17.5708 342.273 13.5153 334.54C-20.9253 288.628 18.5067 254.356 42.5278 242.96C101.489 212.433 177.295 284.476 194.141 312.561C207.618 335.028 257.158 364.253 280.243 376.056C290.725 383.871 323.293 393.965 338.268 398.035L292.409 334.54C273.691 316.224 220.346 178.243 224.09 79.3366C227.084 0.211417 262.773 -4.91707 280.243 2.40934C328.909 23.1675 337.332 134.285 334.524 178.243C332.278 213.41 345.443 288.953 352.306 322.329C354.49 341.866 360.114 382.162 365.408 382.162C368.47 382.162 367.537 376.67 365.408 371.172C355.41 289.36 405.863 210.805 423.956 178.243C442.164 153.594 481.045 114.78 512.343 85.442C565.275 25.6097 560.596 24.4214 588.149 25.6097C626.333 37.3319 627.122 79.597 623.713 109.863C618.621 155.076 580.662 191.268 561.009 201.443C509.328 220.639 459.888 265.741 439.366 287.683Z" fill="#BBC9DD"/>
</svg>
