<svg width="101" height="101" viewBox="0 0 101 101" fill="none" xmlns="http://www.w3.org/2000/svg">
<path d="M70.35 9H30.65C28.0915 9.00265 25.6385 10.0202 23.8293 11.8293C22.0202 13.6385 21.0026 16.0915 21 18.65V82.35C21.0026 84.9085 22.0202 87.3615 23.8293 89.1707C25.6385 90.9798 28.0915 91.9974 30.65 92H70.35C72.9085 91.9974 75.3615 90.9798 77.1707 89.1707C78.9798 87.3615 79.9974 84.9085 80 82.35V18.65C79.9974 16.0915 78.9798 13.6385 77.1707 11.8293C75.3615 10.0202 72.9085 9.00265 70.35 9V9ZM77 82.35C76.9974 84.1129 76.2959 85.8028 75.0493 87.0493C73.8028 88.2959 72.1129 88.9974 70.35 89H30.65C28.8871 88.9974 27.1972 88.2959 25.9507 87.0493C24.7041 85.8028 24.0026 84.1129 24 82.35V18.65C24.0026 16.8871 24.7041 15.1972 25.9507 13.9507C27.1972 12.7041 28.8871 12.0026 30.65 12H70.35C72.1129 12.0026 73.8028 12.7041 75.0493 13.9507C76.2959 15.1972 76.9974 16.8871 77 18.65V82.35Z" fill="black"/>
<path d="M62.5 18H37.5C37.1022 18 36.7206 18.158 36.4393 18.4393C36.158 18.7206 36 19.1022 36 19.5C36 19.8978 36.158 20.2794 36.4393 20.5607C36.7206 20.842 37.1022 21 37.5 21H62.5C62.8978 21 63.2794 20.842 63.5607 20.5607C63.842 20.2794 64 19.8978 64 19.5C64 19.1022 63.842 18.7206 63.5607 18.4393C63.2794 18.158 62.8978 18 62.5 18Z" fill="black"/>
<path d="M50 74C48.6739 74 47.4021 74.5268 46.4645 75.4645C45.5268 76.4021 45 77.6739 45 79C45 80.3261 45.5268 81.5979 46.4645 82.5355C47.4021 83.4732 48.6739 84 50 84C51.3261 84 52.5979 83.4732 53.5355 82.5355C54.4732 81.5979 55 80.3261 55 79C55 77.6739 54.4732 76.4021 53.5355 75.4645C52.5979 74.5268 51.3261 74 50 74ZM50 81C49.4696 81 48.9609 80.7893 48.5858 80.4142C48.2107 80.0391 48 79.5304 48 79C48 78.4696 48.2107 77.9609 48.5858 77.5858C48.9609 77.2107 49.4696 77 50 77C50.5304 77 51.0391 77.2107 51.4142 77.5858C51.7893 77.9609 52 78.4696 52 79C52 79.5304 51.7893 80.0391 51.4142 80.4142C51.0391 80.7893 50.5304 81 50 81Z" fill="black"/>
</svg>
