<svg width="32" height="32" viewBox="0 0 32 32" fill="none" xmlns="http://www.w3.org/2000/svg">
<path d="M29.2677 17.9851H23.3988C23.2735 13.9271 19.9355 10.6641 15.8479 10.6641C11.7602 10.6641 8.42225 13.9271 8.29693 17.9851H2.59355C2.3292 17.9851 2.11523 18.1994 2.11523 18.4634C2.11523 18.7274 2.3292 18.9417 2.59355 18.9417H29.2677C29.5317 18.9417 29.746 18.7274 29.746 18.4634C29.746 18.1994 29.5317 17.9851 29.2677 17.9851ZM15.8476 11.6204C19.4075 11.6204 22.3105 14.4552 22.4361 17.9848H9.2593C9.38493 14.4552 12.288 11.6204 15.8476 11.6204Z" fill="#606060"/>
<path d="M24.4725 22.9961H6.81034C6.546 22.9961 6.33203 23.2104 6.33203 23.4744C6.33203 23.7384 6.546 23.9527 6.81034 23.9527H24.4725C24.7365 23.9527 24.9508 23.7384 24.9508 23.4744C24.9508 23.2104 24.7365 22.9961 24.4725 22.9961Z" fill="#606060"/>
<path d="M19.4056 28.0557H12.3084C12.044 28.0557 11.8301 28.2699 11.8301 28.534C11.8301 28.798 12.044 29.0123 12.3084 29.0123H19.4056C19.6696 29.0123 19.8839 28.798 19.8839 28.534C19.8839 28.2699 19.6699 28.0557 19.4056 28.0557Z" fill="#606060"/>
<path d="M16.0857 9.60084C16.3501 9.60084 16.564 9.38687 16.564 9.12253V3.3914C16.564 3.12705 16.3501 2.91309 16.0857 2.91309C15.8214 2.91309 15.6074 3.12705 15.6074 3.3914V9.12253C15.6074 9.38687 15.8214 9.60084 16.0857 9.60084Z" fill="#606060"/>
<path d="M19.7582 10.1273C19.8115 10.1465 19.8663 10.1557 19.9199 10.1557C20.116 10.1557 20.3 10.0342 20.3702 9.83875L22.1763 4.80883C22.2652 4.5601 22.1361 4.28619 21.8877 4.19723C21.6386 4.10794 21.3647 4.23709 21.2758 4.48581L19.4697 9.51573C19.3804 9.76413 19.5098 10.038 19.7582 10.1273Z" fill="#606060"/>
<path d="M23.0405 12.3368C23.1741 12.3368 23.3068 12.2813 23.4015 12.1729L27.2755 7.73004C27.4489 7.53075 27.4282 7.22877 27.2292 7.05531C27.0293 6.88152 26.728 6.90256 26.5542 7.10154L22.6802 11.5441C22.5067 11.7434 22.5274 12.0454 22.7264 12.2188C22.8173 12.2979 22.9289 12.3368 23.0405 12.3368Z" fill="#606060"/>
<path d="M30.6255 12.5025C30.5065 12.2665 30.2189 12.1715 29.9829 12.2907L24.9288 14.8398C24.6931 14.9588 24.5984 15.2464 24.7174 15.4824C24.8016 15.6491 24.9699 15.7454 25.1447 15.7454C25.2174 15.7454 25.2907 15.7288 25.3599 15.6941L30.4141 13.145C30.6497 13.0257 30.7444 12.7381 30.6255 12.5025Z" fill="#606060"/>
<path d="M11.8673 9.83897C11.9374 10.0341 12.1211 10.1559 12.3175 10.1559C12.3711 10.1559 12.4256 10.1467 12.4792 10.1276C12.7279 10.0383 12.8571 9.76436 12.7678 9.51596L10.8679 4.22519C10.7786 3.97647 10.5041 3.84701 10.2563 3.93661C10.0076 4.0259 9.87845 4.29981 9.96773 4.54821L11.8673 9.83897Z" fill="#606060"/>
<path d="M8.82018 12.1551C8.91456 12.2743 9.05423 12.3362 9.19517 12.3362C9.29945 12.3362 9.40404 12.3024 9.49205 12.2325C9.699 12.0683 9.73375 11.7676 9.56953 11.5607L5.91938 6.95868C5.75484 6.75141 5.45414 6.71665 5.24751 6.88119C5.04056 7.04541 5.0058 7.34611 5.17002 7.55306L8.82018 12.1551Z" fill="#606060"/>
<path d="M7.09148 15.7459C7.26718 15.7459 7.43682 15.6483 7.52005 15.4802C7.63771 15.2436 7.54109 14.9567 7.30449 14.839L2.43942 12.4222C2.20313 12.3046 1.91551 12.4009 1.79816 12.6378C1.6805 12.8744 1.77712 13.1614 2.01372 13.2791L6.87879 15.6955C6.94735 15.7296 7.01973 15.7459 7.09148 15.7459Z" fill="#606060"/>
</svg>
