<svg width="33" height="32" viewBox="0 0 33 32" fill="none" xmlns="http://www.w3.org/2000/svg">
<g clip-path="url(#clip0_284_970)">
<path d="M16.8887 0C8.0522 0 0.888672 7.16353 0.888672 16C0.888672 24.8365 8.0522 32 16.8887 32C25.7251 32 32.8887 24.8365 32.8887 16C32.8887 7.16353 25.7251 0 16.8887 0ZM25.889 7.4364L22.3066 24.2605C22.2394 24.5909 21.863 24.7528 21.5772 24.5737L16.0681 20.9199L13.1703 23.6165C12.9124 23.8371 12.5129 23.7297 12.4007 23.4091L10.5139 17.4585L5.4474 15.3806C5.05869 15.2034 5.06421 14.5844 5.46265 14.4296L25.2407 6.89001C25.597 6.75178 25.9649 7.06197 25.889 7.4364Z" fill="#2A84C7"/>
<path d="M13.01 21.6446L13.3319 18.5855L22.267 9.85156L11.4805 16.9353L13.01 21.6446Z" fill="#2A84C7"/>
</g>
<defs>
<clipPath id="clip0_284_970">
<rect width="32" height="32" fill="white" transform="translate(0.888672)"/>
</clipPath>
</defs>
</svg>
