<svg width="24" height="24" viewBox="0 0 24 24" fill="none" xmlns="http://www.w3.org/2000/svg">
<path d="M2.7271 17.25H10.9544C11.2305 17.25 11.4544 17.4739 11.4544 17.75V17.8409C11.4544 18.1171 11.2305 18.3409 10.9544 18.3409H9.77255C9.49641 18.3409 9.27255 18.5648 9.27255 18.8409V18.9318C9.27255 19.208 9.49641 19.4318 9.77255 19.4318H14.2271C14.5032 19.4318 14.7271 19.208 14.7271 18.9318V18.8409C14.7271 18.5648 14.5032 18.3409 14.2271 18.3409H13.0453C12.7691 18.3409 12.5453 18.1171 12.5453 17.8409V17.75C12.5453 17.4739 12.7691 17.25 13.0453 17.25H21.2726C21.5742 17.25 21.818 17.0056 21.818 16.7045V5.79545C21.818 5.49436 21.5742 5.25 21.2726 5.25H2.7271C2.42546 5.25 2.18164 5.49436 2.18164 5.79545V16.7045C2.18164 17.0056 2.42546 17.25 2.7271 17.25ZM3.27255 6.84091C3.27255 6.56477 3.49641 6.34091 3.77255 6.34091H20.2271C20.5032 6.34091 20.7271 6.56477 20.7271 6.84091V15.6591C20.7271 15.9352 20.5032 16.1591 20.2271 16.1591H12.5453H11.4544H3.77255C3.49641 16.1591 3.27255 15.9352 3.27255 15.6591V6.84091Z" fill="#4A586E"/>
</svg>
