<svg width="24" height="24" viewBox="0 0 24 24" fill="none" xmlns="http://www.w3.org/2000/svg">
<g clip-path="url(#clip0_284_837)">
<path d="M21.3823 6.10938H5.45457C4.61283 6.10938 3.92773 6.79447 3.92773 7.63665C3.92773 8.06428 4.10533 8.45003 4.38941 8.72756C4.10533 9.00508 3.92773 9.39083 3.92773 9.81847C3.92773 10.6606 4.61283 11.3457 5.45457 11.3457H21.3823C22.8262 11.3457 24.0005 10.1715 24.0005 8.72756C24.0005 7.28363 22.8262 6.10938 21.3823 6.10938ZM21.3823 10.473H5.45457C5.0937 10.473 4.80046 10.1793 4.80046 9.81847C4.80046 9.45759 5.0937 9.16392 5.45457 9.16392H21.3823C21.6232 9.16392 21.8186 8.96887 21.8186 8.72756C21.8186 8.48625 21.6232 8.29119 21.3823 8.29119H5.45457C5.0937 8.29119 4.80046 7.99752 4.80046 7.63665C4.80046 7.27578 5.0937 6.9821 5.45457 6.9821H21.3823C22.3449 6.9821 23.1277 7.76494 23.1277 8.72756C23.1277 9.69018 22.3449 10.473 21.3823 10.473Z" fill="#4A586E"/>
<path d="M20.0727 14.1825C20.0727 13.3404 19.3876 12.6553 18.5459 12.6553H2.61818C1.17425 12.6553 0 13.8295 0 15.2735C0 16.7174 1.17425 17.8916 2.61818 17.8916H18.5459C19.3876 17.8916 20.0727 17.2065 20.0727 16.3644C20.0727 15.9367 19.8951 15.551 19.6111 15.2735C19.8951 14.9959 20.0727 14.6102 20.0727 14.1825ZM2.61818 15.7098H18.5459C18.9068 15.7098 19.2 16.0035 19.2 16.3644C19.2 16.7252 18.9068 17.0189 18.5459 17.0189H2.61818C1.65556 17.0189 0.872727 16.2361 0.872727 15.2735C0.872727 14.3108 1.65556 13.528 2.61818 13.528H18.5459C18.9068 13.528 19.2 13.8217 19.2 14.1825C19.2 14.5434 18.9068 14.8371 18.5459 14.8371H2.61818C2.37731 14.8371 2.18182 15.0321 2.18182 15.2735C2.18182 15.5148 2.37731 15.7098 2.61818 15.7098Z" fill="#4A586E"/>
</g>
<defs>
<clipPath id="clip0_284_837">
<rect width="24" height="24" fill="white"/>
</clipPath>
</defs>
</svg>
