<svg width="33" height="32" viewBox="0 0 33 32" fill="none" xmlns="http://www.w3.org/2000/svg">
<g clip-path="url(#clip0_540_294)">
<path d="M16.5557 0C7.71919 0 0.555664 7.16353 0.555664 16C0.555664 24.8365 7.71919 32 16.5557 32C25.3921 32 32.5557 24.8365 32.5557 16C32.5557 7.16353 25.3921 0 16.5557 0ZM23.494 18.1149C23.6199 18.2706 23.9194 18.574 24.3931 19.0256H24.4041L24.4152 19.0363L24.4262 19.0477L24.4486 19.0698C25.4921 20.0393 26.1988 20.8572 26.569 21.5234C26.5914 21.56 26.6154 21.6067 26.6413 21.6622C26.667 21.7177 26.6929 21.8157 26.7189 21.9562C26.7445 22.0973 26.7426 22.2226 26.7134 22.3335C26.6838 22.4442 26.5914 22.5467 26.4359 22.6389C26.2805 22.7317 26.0622 22.7777 25.7808 22.7777L22.9389 22.8225C22.7614 22.8595 22.554 22.841 22.3172 22.767C22.08 22.6927 21.8879 22.6113 21.74 22.5227L21.5177 22.389C21.2954 22.2336 21.0365 21.9968 20.7406 21.6788C20.4444 21.3605 20.191 21.0737 19.9801 20.8183C19.7692 20.5629 19.5433 20.3488 19.3026 20.1742C19.0618 20.0003 18.8529 19.9429 18.6754 20.0023C18.6533 20.0101 18.6235 20.023 18.5865 20.0412C18.5492 20.0597 18.4866 20.1129 18.3976 20.2021C18.3087 20.291 18.2293 20.4004 18.1588 20.5295C18.0884 20.6593 18.0255 20.8517 17.97 21.1071C17.9145 21.3621 17.8902 21.6493 17.898 21.9676C17.898 22.0782 17.8847 22.1804 17.859 22.2729C17.8331 22.3653 17.8052 22.4338 17.7756 22.4779L17.7312 22.5334C17.5978 22.6746 17.4019 22.7557 17.1429 22.7777H15.8662C15.3405 22.8076 14.8003 22.7466 14.2455 22.5947C13.6906 22.4426 13.2036 22.2469 12.7857 22.0062C12.3671 21.7661 11.9862 21.5217 11.6423 21.2738C11.298 21.0256 11.0372 20.8131 10.8597 20.6356L10.5823 20.3689C10.5083 20.2953 10.4064 20.184 10.2769 20.0357C10.1475 19.8877 9.88305 19.5513 9.48331 19.0256C9.08357 18.5 8.69129 17.9416 8.30648 17.3491C7.92166 16.757 7.46838 15.976 6.94632 15.0065C6.42458 14.0373 5.94178 13.0308 5.49758 11.987C5.45313 11.8689 5.43074 11.769 5.43074 11.6875C5.43074 11.6064 5.44178 11.547 5.46416 11.5097L5.50862 11.4432C5.61958 11.3024 5.83049 11.232 6.14132 11.232L9.18318 11.2099C9.27208 11.2249 9.35709 11.2489 9.43853 11.2823C9.51997 11.3154 9.57935 11.3469 9.61634 11.3764L9.67182 11.4098C9.79025 11.4916 9.87883 11.6097 9.93821 11.7651C10.0862 12.1356 10.2565 12.5185 10.4489 12.9143C10.6413 13.3102 10.7932 13.6119 10.9041 13.8189L11.0816 14.1411C11.2961 14.585 11.5034 14.9701 11.7033 15.2956C11.9035 15.6213 12.0826 15.8751 12.2419 16.0561C12.4009 16.2375 12.5544 16.3803 12.7026 16.4835C12.8506 16.5873 12.9765 16.6392 13.0803 16.6392C13.1838 16.6392 13.2838 16.6207 13.3801 16.5837C13.3947 16.5762 13.4132 16.5578 13.4356 16.5282C13.458 16.4987 13.5021 16.4173 13.569 16.2836C13.6355 16.1506 13.6854 15.9766 13.7189 15.7618C13.7523 15.5477 13.7873 15.2479 13.8243 14.8631C13.8613 14.4779 13.8613 14.0156 13.8243 13.4753C13.8094 13.1791 13.776 12.9091 13.7244 12.6648C13.6725 12.4208 13.6206 12.2505 13.569 12.1541L13.5021 12.0211C13.3172 11.7696 13.0028 11.6103 12.5586 11.5435C12.4622 11.5292 12.4807 11.4403 12.6141 11.2774C12.74 11.1366 12.8805 11.026 13.0359 10.9442C13.4281 10.7521 14.3126 10.6632 15.6893 10.6775C16.2961 10.6853 16.7958 10.733 17.188 10.8219C17.336 10.8592 17.4599 10.9088 17.5599 10.9718C17.6598 11.0344 17.7357 11.1236 17.7877 11.2378C17.8392 11.3527 17.8782 11.4711 17.9041 11.5931C17.9301 11.7154 17.9431 11.8842 17.9431 12.0983C17.9431 12.3131 17.9395 12.5169 17.932 12.709C17.9246 12.9014 17.9155 13.1626 17.9045 13.4916C17.8934 13.8209 17.8876 14.1265 17.8876 14.4075C17.8876 14.4893 17.884 14.6444 17.8766 14.8738C17.8691 15.1035 17.8668 15.281 17.871 15.4066C17.8746 15.5324 17.8876 15.6827 17.9097 15.8563C17.932 16.0302 17.9745 16.1749 18.0375 16.2891C18.1001 16.404 18.1835 16.4945 18.2873 16.561C18.3464 16.5762 18.4093 16.5908 18.4762 16.6058C18.5427 16.6204 18.6387 16.5801 18.7646 16.4835C18.8902 16.3874 19.031 16.2596 19.1864 16.1006C19.3418 15.9419 19.5342 15.694 19.7636 15.3569C19.9927 15.0208 20.2445 14.6226 20.5184 14.1635C20.9625 13.3939 21.3584 12.561 21.7062 11.6655C21.7357 11.5912 21.7727 11.5266 21.8172 11.4711C21.8616 11.4153 21.9022 11.3764 21.9392 11.3543L21.9836 11.3209C21.9982 11.3134 22.0167 11.3043 22.0391 11.2933C22.0615 11.2826 22.1095 11.2713 22.1835 11.2599C22.2575 11.2492 22.3315 11.2472 22.4058 11.2547L25.603 11.232C25.8915 11.1953 26.1283 11.2044 26.3133 11.2596C26.4982 11.3151 26.6131 11.3764 26.6575 11.4429L26.7244 11.5539C26.8944 12.0279 26.3396 13.1152 25.0592 14.8176C24.8814 15.0548 24.6407 15.3696 24.3376 15.7615C23.7604 16.5019 23.4275 16.9867 23.3392 17.2167C23.2127 17.5195 23.2646 17.8193 23.494 18.1149Z" fill="#3677FF"/>
</g>
<defs>
<clipPath id="clip0_540_294">
<rect width="32" height="32" fill="white" transform="translate(0.555664)"/>
</clipPath>
</defs>
</svg>
