<svg width="33" height="32" viewBox="0 0 33 32" fill="none" xmlns="http://www.w3.org/2000/svg">
<g clip-path="url(#clip0_284_975)">
<path d="M17.5404 6.77539C13.0823 6.77539 9.4567 10.4006 9.45508 14.8568C9.45443 16.3841 9.88175 17.8711 10.6906 19.1579L10.8827 19.4636L10.0664 22.4461L13.1251 21.6437L13.4204 21.8189C14.6611 22.5554 16.0836 22.9448 17.5339 22.9454H17.5372C21.9917 22.9454 25.6173 19.3198 25.6193 14.8633C25.6202 12.7037 24.7802 10.6732 23.2542 9.14561C21.7283 7.6177 19.6991 6.77604 17.5404 6.77539ZM22.2945 18.3315C22.092 18.899 21.1212 19.4172 20.6546 19.4866C20.2361 19.5492 19.7062 19.5752 19.1244 19.3903C18.7718 19.2783 18.3191 19.1287 17.7393 18.8786C15.3016 17.8263 13.7098 15.3721 13.5884 15.2102C13.4671 15.0479 12.5962 13.8928 12.5962 12.6969C12.5962 11.5009 13.2237 10.9133 13.4466 10.6699C13.6692 10.4266 13.9327 10.3659 14.0946 10.3659C14.2565 10.3659 14.4187 10.3675 14.5602 10.3744C14.7095 10.3818 14.9097 10.3179 15.1069 10.7913C15.3094 11.278 15.7954 12.4736 15.8561 12.5953C15.9168 12.717 15.9574 12.8588 15.8762 13.021C15.7951 13.1829 15.7549 13.2845 15.6332 13.4263C15.5115 13.5681 15.3782 13.7429 15.2688 13.852C15.1472 13.973 15.0206 14.1047 15.1624 14.3477C15.3042 14.5911 15.7919 15.3867 16.5141 16.0307C17.4421 16.8585 18.225 17.1151 18.4681 17.2368C18.7111 17.3585 18.8529 17.338 18.9943 17.1761C19.1361 17.0139 19.6017 16.4665 19.7636 16.2235C19.9256 15.9805 20.0875 16.0207 20.3104 16.1018C20.533 16.1829 21.7276 16.7705 21.9707 16.8922C22.2137 17.0139 22.3756 17.0745 22.4363 17.1761C22.4969 17.2773 22.4969 17.764 22.2945 18.3315Z" fill="#339532"/>
<path d="M16.8887 0C8.0522 0 0.888672 7.16353 0.888672 16C0.888672 24.8365 8.0522 32 16.8887 32C25.7251 32 32.8887 24.8365 32.8887 16C32.8887 7.16353 25.7251 0 16.8887 0ZM17.537 24.5876C17.5366 24.5876 17.5373 24.5876 17.537 24.5876H17.5331C15.9055 24.587 14.3066 24.1788 12.8864 23.404L7.73163 24.7563L9.11125 19.7174C8.26018 18.2427 7.81242 16.5698 7.8134 14.8563C7.81502 9.49481 12.1774 5.13303 17.537 5.13303C20.1382 5.134 22.5798 6.14666 24.4156 7.98475C26.2514 9.82252 27.2621 12.2657 27.2608 14.864C27.2586 20.2255 22.8961 24.5876 17.537 24.5876Z" fill="#339532"/>
</g>
<defs>
<clipPath id="clip0_284_975">
<rect width="32" height="32" fill="white" transform="translate(0.888672)"/>
</clipPath>
</defs>
</svg>
